<svg aria-hidden="true" style="position: absolute; width: 0; height: 0; overflow: hidden;" version="1.1" xmlns="http://www.w3.org/2000/svg" xmlns:xlink="http://www.w3.org/1999/xlink">
<defs>
<symbol id="icon-down" viewBox="0 0 56 32">
<path fill="none" stroke="#fff" style="stroke: var(--color1, #fff)" stroke-linejoin="round" stroke-linecap="round" stroke-miterlimit="4" stroke-width="8" d="M4 4l24 24 24-24"></path>
</symbol>
<symbol id="icon-up" viewBox="0 0 56 32">
<path fill="none" stroke="#fff" style="stroke: var(--color1, #fff)" stroke-linejoin="round" stroke-linecap="round" stroke-miterlimit="4" stroke-width="8" d="M52 28l-24-24-24 24"></path>
</symbol>
<symbol id="icon-arabic" viewBox="0 0 68 32">
<path d="M9.401 8.284l-5.156 15.716h-4.154l7.044-18.958h2.643l-0.378 3.242zM13.685 24l-5.169-15.716-0.417-3.242h2.669l7.083 18.958h-4.167zM13.451 16.943v3.060h-10.013v-3.060h10.013zM19.609 5.042h7.070c1.45 0 2.695 0.217 3.737 0.651 1.050 0.434 1.858 1.076 2.422 1.927s0.846 1.897 0.846 3.138c0 1.016-0.174 1.888-0.521 2.617-0.339 0.721-0.82 1.324-1.445 1.81-0.616 0.477-1.341 0.859-2.175 1.146l-1.237 0.651h-6.146l-0.026-3.047h4.57c0.686 0 1.254-0.122 1.706-0.365s0.79-0.582 1.016-1.016c0.234-0.434 0.352-0.938 0.352-1.51 0-0.608-0.113-1.133-0.339-1.576s-0.569-0.781-1.029-1.016c-0.46-0.234-1.037-0.352-1.732-0.352h-3.164v15.898h-3.906v-18.958zM30.208 24l-4.323-8.451 4.128-0.026 4.375 8.294v0.182h-4.18z"></path>
<path fill="none" stroke="#fff" style="stroke: var(--color1, #fff)" stroke-linejoin="round" stroke-linecap="round" stroke-miterlimit="4" stroke-width="2.6667" d="M60 20l-8-8-8 8"></path>
</symbol>
<symbol id="icon-burger" viewBox="0 0 32 32">
<path fill="none" stroke="#fff" style="stroke: var(--color1, #fff)" stroke-linejoin="round" stroke-linecap="round" stroke-miterlimit="4" stroke-width="2.6667" d="M5.299 7.966h21.333"></path>
<path fill="none" stroke="#fff" style="stroke: var(--color1, #fff)" stroke-linejoin="round" stroke-linecap="round" stroke-miterlimit="4" stroke-width="2.6667" d="M5.299 15.966h21.333"></path>
<path fill="none" stroke="#fff" style="stroke: var(--color1, #fff)" stroke-linejoin="round" stroke-linecap="round" stroke-miterlimit="4" stroke-width="2.6667" d="M5.299 23.966h21.333"></path>
</symbol>
<symbol id="icon-close" viewBox="0 0 32 32">
<path d="M19.471 16l10.585-10.56c0.463-0.463 0.724-1.092 0.724-1.748s-0.26-1.284-0.724-1.748c-0.463-0.464-1.092-0.724-1.748-0.724s-1.284 0.26-1.748 0.724l-10.56 10.585-10.56-10.585c-0.464-0.464-1.092-0.724-1.748-0.724s-1.284 0.26-1.748 0.724c-0.464 0.464-0.724 1.092-0.724 1.748s0.26 1.284 0.724 1.748l10.585 10.56-10.585 10.56c-0.231 0.229-0.414 0.501-0.539 0.801s-0.189 0.622-0.189 0.947 0.064 0.647 0.189 0.947c0.125 0.3 0.308 0.572 0.539 0.801 0.229 0.231 0.501 0.414 0.801 0.539s0.622 0.189 0.947 0.189c0.325 0 0.647-0.064 0.947-0.189s0.572-0.308 0.801-0.539l10.56-10.585 10.56 10.585c0.229 0.231 0.501 0.414 0.801 0.539s0.622 0.189 0.947 0.189c0.325 0 0.647-0.064 0.947-0.189s0.572-0.308 0.801-0.539c0.231-0.229 0.414-0.501 0.539-0.801s0.189-0.622 0.189-0.947-0.064-0.647-0.189-0.947c-0.125-0.3-0.308-0.572-0.539-0.801l-10.585-10.56z"></path>
</symbol>
<symbol id="icon-eng" viewBox="0 0 68 32">
<path d="M14.414 20.953v3.047h-10.091v-3.047h10.091zM5.599 5.042v18.958h-3.906v-18.958h3.906zM13.099 12.763v2.969h-8.776v-2.969h8.776zM14.401 5.042v3.060h-10.078v-3.060h10.078zM32.122 5.042v18.958h-3.906l-7.617-12.708v12.708h-3.906v-18.958h3.906l7.63 12.721v-12.721h3.893z"></path>
<path fill="none" stroke="#fff" style="stroke: var(--color1, #fff)" stroke-linejoin="round" stroke-linecap="round" stroke-miterlimit="4" stroke-width="2.6667" d="M42.667 12l8 8 8-8"></path>
</symbol>
<symbol id="icon-facebook" viewBox="0 0 20 32">
<path d="M12.19 32h-6.095c-0.404 0-0.792-0.161-1.077-0.446s-0.446-0.673-0.446-1.078v-9.448h-3.048c-0.404 0-0.792-0.161-1.077-0.446s-0.446-0.673-0.446-1.078v-5.486c0-0.404 0.161-0.792 0.446-1.078s0.673-0.446 1.077-0.446h3.048v-2.59c0.107-2.322 1.129-4.507 2.842-6.077s3.979-2.399 6.301-2.304h4.571c0.404 0 0.792 0.161 1.078 0.446s0.446 0.673 0.446 1.077v5.486c0 0.404-0.161 0.792-0.446 1.078s-0.673 0.446-1.078 0.446h-4.571v2.438h4.571c0.235-0.002 0.468 0.051 0.679 0.154s0.396 0.254 0.54 0.44c0.142 0.189 0.238 0.409 0.28 0.642s0.030 0.472-0.036 0.699l-1.524 5.486c-0.092 0.33-0.293 0.619-0.569 0.82s-0.613 0.305-0.955 0.292h-2.987v9.448c0 0.404-0.161 0.792-0.446 1.078s-0.673 0.446-1.078 0.446zM7.619 28.952h3.048v-9.448c0-0.404 0.161-0.792 0.446-1.078s0.673-0.446 1.078-0.446h3.413l0.67-2.438h-4.084c-0.404 0-0.792-0.161-1.078-0.446s-0.446-0.673-0.446-1.078v-4.114c0.039-0.782 0.377-1.518 0.945-2.057s1.32-0.839 2.103-0.838h3.048v-2.438h-3.048c-1.513-0.092-3.002 0.416-4.143 1.415s-1.842 2.407-1.952 3.919v4.114c0 0.404-0.161 0.792-0.446 1.078s-0.673 0.446-1.077 0.446h-3.048v2.438h3.048c0.404 0 0.792 0.161 1.077 0.446s0.446 0.673 0.446 1.078v9.448z"></path>
</symbol>
<symbol id="icon-instagram" viewBox="0 0 32 32">
<path d="M9.953 1.421c1.564-0.072 2.063-0.088 6.047-0.088s4.483 0.017 6.045 0.088c1.563 0.071 2.629 0.32 3.563 0.681 0.977 0.369 1.864 0.947 2.597 1.693 0.747 0.732 1.323 1.617 1.691 2.596 0.363 0.933 0.611 2 0.683 3.56 0.072 1.567 0.088 2.065 0.088 6.048 0 3.984-0.017 4.483-0.088 6.047-0.071 1.56-0.32 2.627-0.683 3.56-0.368 0.979-0.945 1.866-1.691 2.599-0.733 0.747-1.62 1.323-2.597 1.691-0.933 0.363-2 0.611-3.56 0.683-1.565 0.072-2.064 0.088-6.048 0.088s-4.483-0.017-6.047-0.088c-1.56-0.071-2.627-0.32-3.56-0.683-0.979-0.368-1.866-0.945-2.599-1.691-0.746-0.732-1.324-1.619-1.692-2.597-0.361-0.933-0.609-2-0.681-3.56-0.072-1.567-0.088-2.065-0.088-6.048 0-3.984 0.017-4.483 0.088-6.045s0.32-2.629 0.681-3.563c0.369-0.979 0.947-1.865 1.693-2.597 0.732-0.746 1.618-1.323 2.596-1.692 0.933-0.361 2-0.609 3.56-0.681h0.001zM21.927 4.061c-1.547-0.071-2.011-0.085-5.927-0.085s-4.38 0.015-5.927 0.085c-1.431 0.065-2.207 0.304-2.724 0.505-0.684 0.267-1.173 0.583-1.687 1.096-0.487 0.473-0.861 1.050-1.096 1.687-0.201 0.517-0.44 1.293-0.505 2.724-0.071 1.547-0.085 2.011-0.085 5.927s0.015 4.38 0.085 5.927c0.065 1.431 0.304 2.207 0.505 2.724 0.235 0.636 0.609 1.213 1.096 1.687 0.473 0.487 1.051 0.861 1.687 1.096 0.517 0.201 1.293 0.44 2.724 0.505 1.547 0.071 2.009 0.085 5.927 0.085s4.38-0.015 5.927-0.085c1.431-0.065 2.207-0.304 2.724-0.505 0.684-0.267 1.173-0.583 1.687-1.096 0.487-0.473 0.861-1.051 1.096-1.687 0.201-0.517 0.44-1.293 0.505-2.724 0.071-1.547 0.085-2.011 0.085-5.927s-0.015-4.38-0.085-5.927c-0.065-1.431-0.304-2.207-0.505-2.724-0.267-0.684-0.583-1.173-1.096-1.687-0.473-0.487-1.050-0.861-1.687-1.096-0.517-0.201-1.293-0.44-2.724-0.505zM14.127 20.521c1.046 0.435 2.211 0.494 3.296 0.166s2.022-1.022 2.652-1.965c0.63-0.942 0.913-2.074 0.801-3.201s-0.612-2.181-1.415-2.981c-0.512-0.511-1.13-0.903-1.812-1.146s-1.408-0.333-2.128-0.262-1.415 0.301-2.036 0.673c-0.62 0.372-1.151 0.877-1.553 1.478s-0.665 1.285-0.772 2c-0.106 0.715-0.053 1.446 0.157 2.138s0.571 1.329 1.056 1.866c0.486 0.536 1.084 0.958 1.752 1.235zM10.669 10.669c0.7-0.7 1.531-1.255 2.446-1.634s1.895-0.574 2.885-0.574c0.99 0 1.97 0.195 2.885 0.574s1.746 0.934 2.446 1.634c0.7 0.7 1.255 1.531 1.634 2.446s0.574 1.895 0.574 2.885-0.195 1.97-0.574 2.885c-0.379 0.915-0.934 1.746-1.634 2.446-1.414 1.414-3.331 2.208-5.331 2.208s-3.917-0.794-5.331-2.208c-1.414-1.414-2.208-3.331-2.208-5.331s0.794-3.917 2.208-5.331zM25.211 9.584c0.173-0.164 0.312-0.36 0.408-0.579s0.147-0.454 0.151-0.692c0.003-0.238-0.041-0.475-0.131-0.696s-0.223-0.422-0.391-0.59c-0.169-0.169-0.369-0.302-0.59-0.391s-0.458-0.134-0.696-0.131c-0.239 0.003-0.474 0.055-0.692 0.151s-0.415 0.235-0.579 0.408c-0.318 0.337-0.493 0.785-0.486 1.249s0.194 0.907 0.522 1.235c0.328 0.328 0.771 0.515 1.235 0.522s0.912-0.167 1.249-0.486z"></path>
</symbol>
<symbol id="icon-mail" viewBox="0 0 40 32">
<path d="M36 32h-32c-1.061 0-2.078-0.421-2.828-1.172s-1.172-1.768-1.172-2.828v-24.174c0.045-1.030 0.486-2.004 1.231-2.717s1.737-1.11 2.769-1.109h32c1.061 0 2.078 0.421 2.828 1.172s1.172 1.768 1.172 2.828v24c0 1.061-0.421 2.078-1.172 2.828s-1.768 1.172-2.828 1.172zM4 7.736v20.264h32v-20.264l-16 10.664-16-10.664zM5.6 4l14.4 9.6 14.4-9.6h-28.8z"></path>
</symbol>
<symbol id="icon-phone" viewBox="0 0 32 32">
<path d="M27.999 31.6h-0.204c-23.58-1.356-26.928-21.252-27.396-27.324-0.038-0.472 0.018-0.947 0.164-1.397s0.38-0.868 0.687-1.228c0.308-0.36 0.683-0.656 1.106-0.871s0.883-0.344 1.355-0.38h6.612c0.481-0 0.95 0.143 1.348 0.413s0.706 0.652 0.884 1.099l1.824 4.488c0.176 0.436 0.219 0.915 0.125 1.375s-0.321 0.884-0.653 1.217l-2.556 2.58c0.399 2.269 1.486 4.36 3.113 5.992s3.715 2.723 5.983 3.128l2.604-2.58c0.338-0.329 0.765-0.551 1.228-0.638s0.942-0.037 1.376 0.146l4.524 1.812c0.44 0.184 0.815 0.494 1.078 0.891s0.401 0.864 0.398 1.341v6.336c0 0.955-0.379 1.87-1.054 2.546s-1.591 1.054-2.546 1.054zM3.999 2.8c-0.318 0-0.623 0.126-0.849 0.351s-0.351 0.53-0.351 0.849v0.096c0.552 7.104 4.092 23.904 25.128 25.104 0.158 0.010 0.316-0.012 0.465-0.063s0.287-0.132 0.405-0.237c0.118-0.105 0.215-0.232 0.284-0.374s0.109-0.296 0.118-0.454v-6.408l-4.524-1.812-3.444 3.42-0.576-0.072c-10.44-1.308-11.856-11.748-11.856-11.856l-0.072-0.576 3.408-3.444-1.8-4.524h-6.336z"></path>
</symbol>
<symbol id="icon-tiktok" viewBox="0 0 30 32">
<path   d="M28.952 9.333c-1.819 0-3.563-0.722-4.849-2.008s-2.008-3.030-2.008-4.849c0-0.303-0.12-0.594-0.335-0.808s-0.505-0.335-0.808-0.335h-5.714c-0.303 0-0.594 0.12-0.808 0.335s-0.335 0.505-0.335 0.808v18.286c-0.001 0.511-0.139 1.012-0.4 1.451s-0.634 0.801-1.082 1.047c-0.448 0.246-0.953 0.367-1.464 0.351s-1.008-0.168-1.439-0.441c-0.432-0.273-0.782-0.657-1.015-1.112s-0.34-0.963-0.309-1.474c0.031-0.51 0.197-1.002 0.483-1.426s0.679-0.763 1.141-0.983c0.197-0.090 0.363-0.235 0.48-0.418s0.178-0.395 0.178-0.611v-5.943c0.003-0.169-0.033-0.337-0.105-0.491s-0.178-0.289-0.309-0.395c-0.128-0.105-0.277-0.182-0.438-0.224s-0.328-0.049-0.491-0.019c-2.033 0.364-3.92 1.301-5.44 2.7s-2.608 3.203-3.139 5.199c-0.53 1.996-0.481 4.102 0.144 6.071s1.798 3.719 3.382 5.044 3.514 2.172 5.562 2.439c2.048 0.267 4.13-0.055 6.001-0.929s3.454-2.264 4.564-4.007c1.109-1.743 1.698-3.765 1.698-5.831v-5.1c2.117 1.104 4.47 1.678 6.857 1.671 0.303 0 0.594-0.12 0.808-0.335s0.335-0.505 0.335-0.808v-5.714c0-0.303-0.12-0.594-0.335-0.808s-0.505-0.335-0.808-0.335zM27.81 14.99c-2.231-0.198-4.367-0.992-6.186-2.3-0.172-0.119-0.373-0.189-0.581-0.202s-0.417 0.029-0.603 0.125c-0.186 0.095-0.343 0.239-0.454 0.416s-0.172 0.381-0.176 0.59v7.143c-0.001 1.571-0.434 3.112-1.251 4.454s-1.988 2.433-3.383 3.155c-1.396 0.722-2.963 1.046-4.53 0.937s-3.075-0.646-4.358-1.554-2.291-2.15-2.915-3.592c-0.624-1.442-0.84-3.028-0.624-4.584s0.856-3.023 1.849-4.241c0.993-1.217 2.302-2.138 3.784-2.662v3.814c-0.739 0.494-1.337 1.17-1.737 1.964s-0.586 1.678-0.543 2.565 0.317 1.749 0.793 2.499c0.476 0.751 1.138 1.365 1.922 1.784s1.663 0.627 2.551 0.605c0.888-0.022 1.756-0.275 2.518-0.732s1.392-1.104 1.83-1.878c0.437-0.774 0.667-1.647 0.666-2.536v-17.143h3.5c0.256 2.013 1.174 3.885 2.609 5.32s3.306 2.353 5.32 2.609v3.443z"></path>
</symbol>
</defs>
</svg>
