<svg width="51" height="24" viewBox="0 0 51 24" fill="none" xmlns="http://www.w3.org/2000/svg">
<path d="M7.05078 6.21289L3.18359 18H0.0683594L5.35156 3.78125H7.33398L7.05078 6.21289ZM10.2637 18L6.38672 6.21289L6.07422 3.78125H8.07617L13.3887 18H10.2637ZM10.0879 12.707V15.002H2.57812V12.707H10.0879ZM14.707 3.78125H20.0098C21.097 3.78125 22.0312 3.94401 22.8125 4.26953C23.6003 4.59505 24.2057 5.07682 24.6289 5.71484C25.0521 6.35286 25.2637 7.13737 25.2637 8.06836C25.2637 8.83008 25.1335 9.48438 24.873 10.0312C24.6191 10.5716 24.2578 11.0241 23.7891 11.3887C23.3268 11.7467 22.7832 12.0332 22.1582 12.248L21.2305 12.7363H16.6211L16.6016 10.4512H20.0293C20.5436 10.4512 20.9701 10.36 21.3086 10.1777C21.6471 9.99544 21.901 9.74154 22.0703 9.41602C22.2461 9.09049 22.334 8.71289 22.334 8.2832C22.334 7.82747 22.2493 7.43359 22.0801 7.10156C21.9108 6.76953 21.6536 6.51562 21.3086 6.33984C20.9635 6.16406 20.5306 6.07617 20.0098 6.07617H17.6367V18H14.707V3.78125ZM22.6562 18L19.4141 11.6621L22.5098 11.6426L25.791 17.8633V18H22.6562Z" fill="white"/>
<path d="M45 15L39 9L33 15" stroke="white" stroke-width="2" stroke-linecap="round" stroke-linejoin="round"/>
</svg>
