<svg width="48" height="48" viewBox="0 0 48 48" fill="none" xmlns="http://www.w3.org/2000/svg">
<path d="M32.1273 16.6312C32.1273 16.425 31.9586 16.2562 31.7523 16.2562L28.6586 16.2703L23.9992 21.825L19.3445 16.275L16.2461 16.2609C16.0398 16.2609 15.8711 16.425 15.8711 16.6359C15.8711 16.725 15.9039 16.8094 15.9602 16.8797L22.0586 24.1453L15.9602 31.4062C15.9035 31.4749 15.8721 31.5609 15.8711 31.65C15.8711 31.8562 16.0398 32.025 16.2461 32.025L19.3445 32.0109L23.9992 26.4562L28.6539 32.0062L31.7477 32.0203C31.9539 32.0203 32.1227 31.8562 32.1227 31.6453C32.1227 31.5562 32.0898 31.4719 32.0336 31.4015L25.9445 24.1406L32.043 16.875C32.0992 16.8094 32.1273 16.7203 32.1273 16.6312Z" fill="white"/>
<path d="M24 3.04688C12.4031 3.04688 3 12.45 3 24.0469C3 35.6437 12.4031 45.0469 24 45.0469C35.5969 45.0469 45 35.6437 45 24.0469C45 12.45 35.5969 3.04688 24 3.04688ZM24 41.4844C14.3719 41.4844 6.5625 33.675 6.5625 24.0469C6.5625 14.4188 14.3719 6.60938 24 6.60938C33.6281 6.60938 41.4375 14.4188 41.4375 24.0469C41.4375 33.675 33.6281 41.4844 24 41.4844Z" fill="white"/>
</svg>
