<svg width="26" height="26" viewBox="0 0 26 26" fill="none" xmlns="http://www.w3.org/2000/svg">
<path d="M15.8199 13L24.4199 4.42C24.7965 4.0434 25.0081 3.53261 25.0081 3C25.0081 2.4674 24.7965 1.95661 24.4199 1.58C24.0433 1.2034 23.5325 0.991821 22.9999 0.991821C22.4673 0.991821 21.9565 1.2034 21.5799 1.58L12.9999 10.18L4.41988 1.58C4.04327 1.2034 3.53248 0.991821 2.99988 0.991821C2.46727 0.991821 1.95649 1.2034 1.57988 1.58C1.20327 1.95661 0.991694 2.4674 0.991694 3C0.991694 3.53261 1.20327 4.0434 1.57988 4.42L10.1799 13L1.57988 21.58C1.39242 21.7659 1.24363 21.9871 1.1421 22.2309C1.04056 22.4746 0.988281 22.736 0.988281 23C0.988281 23.264 1.04056 23.5254 1.1421 23.7692C1.24363 24.0129 1.39242 24.2341 1.57988 24.42C1.7658 24.6075 1.98701 24.7563 2.23072 24.8578C2.47444 24.9593 2.73585 25.0116 2.99988 25.0116C3.2639 25.0116 3.52531 24.9593 3.76903 24.8578C4.01275 24.7563 4.23395 24.6075 4.41988 24.42L12.9999 15.82L21.5799 24.42C21.7658 24.6075 21.987 24.7563 22.2307 24.8578C22.4744 24.9593 22.7359 25.0116 22.9999 25.0116C23.2639 25.0116 23.5253 24.9593 23.769 24.8578C24.0128 24.7563 24.2339 24.6075 24.4199 24.42C24.6073 24.2341 24.7561 24.0129 24.8577 23.7692C24.9592 23.5254 25.0115 23.264 25.0115 23C25.0115 22.736 24.9592 22.4746 24.8577 22.2309C24.7561 21.9871 24.6073 21.7659 24.4199 21.58L15.8199 13Z" fill="white"/>
</svg>
