<svg width="13" height="21" viewBox="0 0 13 21" fill="none" xmlns="http://www.w3.org/2000/svg">
<path d="M8 21H4C3.73478 21 3.48043 20.8946 3.29289 20.7071C3.10536 20.5196 3 20.2652 3 20V13.8H1C0.734784 13.8 0.48043 13.6946 0.292893 13.5071C0.105357 13.3196 0 13.0652 0 12.8V9.2C0 8.93478 0.105357 8.68043 0.292893 8.49289C0.48043 8.30536 0.734784 8.2 1 8.2H3V6.5C3.0701 4.97635 3.74062 3.54244 4.86497 2.51179C5.98932 1.48113 7.47602 0.93759 9 1H12C12.2652 1 12.5196 1.10536 12.7071 1.29289C12.8946 1.48043 13 1.73478 13 2V5.6C13 5.86522 12.8946 6.11957 12.7071 6.30711C12.5196 6.49464 12.2652 6.6 12 6.6H9V8.2H12C12.1544 8.19883 12.307 8.23343 12.4458 8.3011C12.5846 8.36876 12.7058 8.46764 12.8 8.59C12.8931 8.7142 12.9561 8.85837 12.9839 9.01111C13.0116 9.16386 13.0035 9.32096 12.96 9.47L11.96 13.07C11.8995 13.2863 11.768 13.4759 11.5866 13.6084C11.4052 13.7408 11.1844 13.8083 10.96 13.8H9V20C9 20.2652 8.89464 20.5196 8.70711 20.7071C8.51957 20.8946 8.26522 21 8 21ZM5 19H7V12.8C7 12.5348 7.10536 12.2804 7.29289 12.0929C7.48043 11.9054 7.73478 11.8 8 11.8H10.24L10.68 10.2H8C7.73478 10.2 7.48043 10.0946 7.29289 9.90711C7.10536 9.71957 7 9.46522 7 9.2V6.5C7.02568 5.98709 7.24767 5.50371 7.62 5.15C7.99233 4.79629 8.48645 4.59936 9 4.6H11V3H9C8.00681 2.93949 7.02982 3.27303 6.28098 3.92826C5.53214 4.5835 5.07186 5.50757 5 6.5V9.2C5 9.46522 4.89464 9.71957 4.70711 9.90711C4.51957 10.0946 4.26522 10.2 4 10.2H2V11.8H4C4.26522 11.8 4.51957 11.9054 4.70711 12.0929C4.89464 12.2804 5 12.5348 5 12.8V19Z" fill="white"/>
</svg>
