<svg width="24" height="24" viewBox="0 0 24 24" fill="none" xmlns="http://www.w3.org/2000/svg">
<path d="M13 22H9C8.73478 22 8.48043 21.8946 8.29289 21.7071C8.10536 21.5195 8 21.2652 8 21V14.8H6C5.73478 14.8 5.48043 14.6946 5.29289 14.5071C5.10536 14.3195 5 14.0652 5 13.8V10.2C5 9.93474 5.10536 9.68038 5.29289 9.49285C5.48043 9.30531 5.73478 9.19995 6 9.19995H8V7.49995C8.0701 5.97631 8.74062 4.5424 9.86497 3.51174C10.9893 2.48109 12.476 1.93754 14 1.99995H17C17.2652 1.99995 17.5196 2.10531 17.7071 2.29285C17.8946 2.48038 18 2.73474 18 2.99995V6.59995C18 6.86517 17.8946 7.11953 17.7071 7.30706C17.5196 7.4946 17.2652 7.59995 17 7.59995H14V9.19995H17C17.1544 9.19878 17.307 9.23339 17.4458 9.30105C17.5846 9.36871 17.7058 9.4676 17.8 9.58995C17.8931 9.71415 17.9561 9.85833 17.9839 10.0111C18.0116 10.1638 18.0035 10.3209 17.96 10.47L16.96 14.07C16.8995 14.2863 16.768 14.4759 16.5866 14.6083C16.4052 14.7408 16.1844 14.8083 15.96 14.8H14V21C14 21.2652 13.8946 21.5195 13.7071 21.7071C13.5196 21.8946 13.2652 22 13 22ZM10 20H12V13.8C12 13.5347 12.1054 13.2804 12.2929 13.0928C12.4804 12.9053 12.7348 12.8 13 12.8H15.24L15.68 11.2H13C12.7348 11.2 12.4804 11.0946 12.2929 10.9071C12.1054 10.7195 12 10.4652 12 10.2V7.49995C12.0257 6.98704 12.2477 6.50366 12.62 6.14995C12.9923 5.79624 13.4864 5.59931 14 5.59995H16V3.99995H14C13.0068 3.93944 12.0298 4.27299 11.281 4.92822C10.5321 5.58345 10.0719 6.50752 10 7.49995V10.2C10 10.4652 9.89464 10.7195 9.70711 10.9071C9.51957 11.0946 9.26522 11.2 9 11.2H7V12.8H9C9.26522 12.8 9.51957 12.9053 9.70711 13.0928C9.89464 13.2804 10 13.5347 10 13.8V20Z" fill="white"/>
</svg>
