<svg width="100" height="100" viewBox="0 0 100 100" fill="none" xmlns="http://www.w3.org/2000/svg">
<g clip-path="url(#clip0_466_9898)">
<path d="M72.973 0C66.2713 0.00386359 59.8114 2.89509 54.8541 8.10938C52.9698 10.0775 51.3356 12.3436 50 14.8406C48.6637 12.3433 47.0296 10.0762 45.1459 8.10625C40.1876 2.89414 33.7281 0.00420934 27.027 0C12.1243 0 0 14.0187 0 31.25C0 42.8812 3.12973 52.0625 10.4622 61.9531C21.1162 76.3281 48.0811 98.2656 49.2243 99.1937C49.451 99.3797 49.7221 99.4796 50 99.4796C50.2779 99.4796 50.549 99.3797 50.7757 99.1937C51.9189 98.2656 78.8838 76.3281 89.5405 61.9531C96.8703 52.0625 100 42.8812 100 31.25C100 14.0187 87.8757 0 72.973 0ZM87.4892 59.9219C78.0432 72.6594 54.5703 92.2375 50 96C45.4297 92.2375 21.9568 72.6594 12.5135 59.9219C5.63514 50.6437 2.7027 42.0687 2.7027 31.25C2.7027 15.7406 13.6162 3.125 27.027 3.125C33.0459 3.125 38.8378 5.71562 43.3297 10.4219C45.5833 12.7783 47.435 15.602 48.7892 18.7469C49.2487 19.8094 50.7514 19.8094 51.2108 18.7469C52.5644 15.6025 54.4163 12.7797 56.6703 10.425C61.1299 5.73144 66.9426 3.12865 72.973 3.125C86.3838 3.125 97.2973 15.7406 97.2973 31.25C97.2973 42.0687 94.3649 50.6437 87.4892 59.9219Z" fill="white"/>
</g>
<defs>
<clipPath id="clip0_466_9898">
<rect width="100" height="100" fill="white"/>
</clipPath>
</defs>
</svg>
