<svg width="100" height="100" viewBox="0 0 100 100" fill="none" xmlns="http://www.w3.org/2000/svg">
<g clip-path="url(#clip0_233_4299)">
<path d="M74.0155 0.0229377C74.7139 0.0537141 75.4055 0.115272 76.0894 0.206469L75.9572 1.1977C76.6192 1.28596 77.2736 1.40323 77.9197 1.5484L78.139 0.572732C78.8181 0.725341 79.4883 0.907453 80.1485 1.11786L79.8448 2.07064C80.4792 2.27285 81.1043 2.50243 81.7189 2.75828L82.1032 1.83506C82.7437 2.10164 83.373 2.39543 83.9901 2.71523L83.53 3.6031C84.121 3.90933 84.7006 4.24059 85.2681 4.59578L85.7987 3.74816C86.3852 4.11532 86.9587 4.50684 87.5182 4.92153L86.9228 5.72493C87.4581 6.12166 87.9804 6.54068 88.4887 6.98093L89.1434 6.22502C89.6656 6.67734 90.1733 7.15096 90.6655 7.64478L89.9572 8.35069C90.4283 8.82339 90.8849 9.3155 91.3261 9.82603L92.0827 9.17217C92.5341 9.69449 92.9696 10.2351 93.3883 10.7931L92.5885 11.3933C92.9897 11.9279 93.3752 12.4792 93.744 13.046L94.5822 12.5007C94.9586 13.0791 95.318 13.6731 95.6596 14.2817L94.7877 14.7712C95.1152 15.3547 95.426 15.9522 95.7192 16.5627L96.6206 16.1299C96.9194 16.7521 97.2003 17.3872 97.4626 18.0344L96.5358 18.41C96.7873 19.0305 97.0211 19.6626 97.2367 20.3053L98.1848 19.9874C98.4043 20.6422 98.6053 21.3075 98.7869 21.9826L97.8213 22.2425C97.9953 22.889 98.151 23.5448 98.2879 24.2092L99.2673 24.0074C99.4065 24.6831 99.5267 25.3672 99.6271 26.0589L98.6375 26.2026C98.7339 26.8662 98.8116 27.5372 98.87 28.2148L99.8663 28.129C99.9254 28.8153 99.9652 29.5081 99.9851 30.2066L98.9855 30.2351C98.9952 30.572 99 30.9104 99 31.25C99 31.5913 98.9973 31.9303 98.9918 32.2672L99.9916 32.2835C99.9803 32.9804 99.9572 33.6686 99.9224 34.3489L98.9237 34.2977C98.8887 34.9806 98.8415 35.6548 98.7819 36.3212L99.778 36.4102C99.7161 37.1024 99.6411 37.7867 99.5527 38.464L98.5611 38.3345C98.4732 39.0084 98.3717 39.6748 98.2565 40.3344L99.2416 40.5065C99.1225 41.1884 98.989 41.8638 98.8407 42.5334L97.8643 42.3172C97.7183 42.9766 97.5577 43.6302 97.3823 44.2788L98.3476 44.54C98.1676 45.205 97.9724 45.8652 97.7616 46.5212L96.8095 46.2153C96.604 46.8548 96.3833 47.4904 96.147 48.1231L97.0839 48.4729C96.844 49.1152 96.5886 49.7544 96.3172 50.3914L95.3972 49.9995C95.1349 50.6153 94.8572 51.2293 94.564 51.8423L95.466 52.2739C95.1713 52.8899 94.8613 53.5045 94.5357 54.1186L93.6522 53.6502C93.3391 54.2409 93.011 54.8315 92.6677 55.4227L93.5325 55.9248C93.1907 56.5136 92.8343 57.1027 92.463 57.6927L91.6166 57.1601C91.2603 57.7263 90.8899 58.2938 90.5051 58.8633L91.3336 59.4232C90.9529 59.9865 90.5586 60.5514 90.1505 61.1182L89.3389 60.5339C89.1417 60.8079 88.9411 61.0824 88.7372 61.3576C88.5406 61.6229 88.338 61.891 88.1299 62.162L88.9229 62.7712C88.5132 63.3044 88.083 63.8469 87.6343 64.3973L86.8592 63.7655C86.4373 64.283 85.9984 64.8082 85.544 65.34L86.3043 65.9896C85.8635 66.5054 85.4088 67.0268 84.9419 67.5527L84.1941 66.8887C83.7461 67.3933 83.2863 67.9024 82.8161 68.415L83.5531 69.0909C83.092 69.5937 82.6212 70.0996 82.1422 70.6077L81.4146 69.9217C80.9483 70.4162 80.474 70.913 79.9928 71.4112L80.712 72.1059C80.2359 72.5989 79.7532 73.0931 79.2651 73.5878L78.5533 72.8855C78.0732 73.3721 77.5877 73.8592 77.0981 74.3462L77.8032 75.0552C77.3151 75.5406 76.823 76.0257 76.3279 76.5096L75.6289 75.7945C75.1376 76.2748 74.6433 76.7541 74.1471 77.2316L74.8405 77.9521C74.3426 78.4314 73.8428 78.9088 73.3423 79.3837L72.654 78.6583C72.1533 79.1333 71.6518 79.6058 71.1506 80.0751L71.834 80.8051C71.3276 81.2793 70.8214 81.7502 70.3167 82.2169L69.6378 81.4828C69.1288 81.9535 68.6213 82.42 68.1163 82.8817L68.7911 83.6197C68.2768 84.0899 67.7653 84.5549 67.2577 85.014L66.5869 84.2724C66.0701 84.7397 65.5574 85.201 65.05 85.6551L65.717 86.4002C65.195 86.8675 64.6787 87.3273 64.1695 87.7786L63.5062 87.0303C62.9814 87.4955 62.4641 87.9517 61.9559 88.398L62.6158 89.1494C62.0857 89.6149 61.5654 90.0695 61.0567 90.5121L60.4003 89.7577C59.8672 90.2216 59.3468 90.6723 58.8411 91.1084L59.4942 91.8657C58.9514 92.3337 58.4257 92.785 57.9193 93.2179L57.2696 92.4577C56.7189 92.9284 56.1914 93.3772 55.69 93.8019L56.3364 94.5649C55.7779 95.0381 55.2518 95.4815 54.7626 95.8922L54.1197 95.1263C53.5333 95.6185 53.0001 96.0635 52.5277 96.4562L53.1669 97.2252C52.5072 97.7735 51.9655 98.2201 51.5624 98.5509L50.928 97.778C50.5072 98.1233 50.2385 98.3418 50.1454 98.4174L50.1414 98.4206C50.1325 98.4279 50.1239 98.4343 50.1155 98.4399C50.1101 98.4435 50.1048 98.4468 50.0997 98.4498L50.6028 99.314C50.4791 99.3861 50.3465 99.4355 50.2097 99.4605L50.0296 98.4769C50.0194 98.4787 50.0096 98.4796 50 98.4796C49.9904 98.4796 49.9806 98.4787 49.9704 98.4769L49.7903 99.4605C49.6535 99.4355 49.5209 99.3861 49.3972 99.314L49.9003 98.4498C49.8872 98.4422 49.8732 98.4326 49.8586 98.4206L49.8546 98.4174C49.7615 98.3418 49.4928 98.1233 49.0721 97.778L48.4376 98.551C48.0346 98.2201 47.4929 97.7736 46.8332 97.2253L47.4724 96.4562C47 96.0636 46.4668 95.6186 45.8805 95.1264L45.2375 95.8923C44.7484 95.4816 44.2223 95.0382 43.6638 94.565L44.3102 93.802C43.8089 93.3773 43.2813 92.9286 42.7307 92.4579L42.081 93.218C41.5746 92.7852 41.0489 92.3339 40.5061 91.8659L41.1592 91.1086C40.6536 90.6725 40.1332 90.2219 39.6001 89.758L38.9437 90.5124C38.435 90.0697 37.9148 89.6151 37.3847 89.1496L38.0445 88.3982C37.5364 87.952 37.0191 87.4958 36.4944 87.0306L35.8311 87.7789C35.3219 87.3276 34.8056 86.8678 34.2837 86.4005L34.9506 85.6555C34.4433 85.2013 33.9306 84.7401 33.4138 84.2727L32.743 85.0143C32.2355 84.5553 31.724 84.0902 31.2097 83.6201L31.8845 82.882C31.3796 82.4204 30.8721 81.9538 30.3631 81.4831L29.6841 82.2173C29.1795 81.7505 28.6734 81.2796 28.1669 80.8054L28.8504 80.0755C28.3492 79.6062 27.8477 79.1337 27.3471 78.6586L26.6588 79.3841C26.1583 78.9092 25.6585 78.4317 25.1606 77.9525L25.8541 77.232C25.3579 76.7544 24.8637 76.2752 24.3724 75.7949L23.6734 76.51C23.1783 76.026 22.6862 75.541 22.1982 75.0556L22.9033 74.3465C22.4137 73.8596 21.9283 73.3725 21.4483 72.8859L20.7364 73.5882C20.2484 73.0935 19.7657 72.5992 19.2896 72.1062L20.0089 71.4115C19.5277 70.9133 19.0534 70.4165 18.5872 69.922L17.8596 70.608C17.3806 70.0999 16.9099 69.594 16.4488 69.0912L17.1858 68.4153C16.7157 67.9027 16.256 67.3936 15.808 66.889L15.0602 67.5529C14.5932 67.027 14.1387 66.5056 13.6979 65.9898L14.4582 65.3402C14.0039 64.8084 13.5651 64.2832 13.1432 63.7657L12.3681 64.3975C11.9194 63.847 11.4893 63.3045 11.0797 62.7713L11.8728 62.1621C11.6647 61.8912 11.4622 61.623 11.2656 61.3577L11.2655 61.3576C11.0615 61.0824 10.8608 60.8078 10.6635 60.5339L9.85205 61.1183C9.44382 60.5515 9.04941 59.9867 8.66859 59.4234L9.49704 58.8633C9.11211 58.2939 8.74158 57.7265 8.38517 57.1603L7.53888 57.693C7.16753 57.103 6.811 56.514 6.46905 55.9252L7.33379 55.423C6.99043 54.8318 6.66227 54.2412 6.34903 53.6506L5.46558 54.1191C5.13991 53.505 4.82981 52.8904 4.53502 52.2744L5.43704 51.8427C5.14369 51.2297 4.86596 50.6158 4.60356 49.9999L3.68359 50.3919C3.41218 49.755 3.15667 49.1158 2.91676 48.4734L3.85355 48.1236C3.61724 47.4909 3.39646 46.8552 3.1909 46.2157L2.23887 46.5217C2.02798 45.8657 1.83271 45.2055 1.65275 44.5404L2.61805 44.2793C2.44254 43.6306 2.28191 42.977 2.13586 42.3176L1.15952 42.5338C1.01121 41.8642 0.877642 41.1888 0.758523 40.5068L1.74361 40.3348C1.62838 39.675 1.5269 39.0087 1.43893 38.3348L0.447343 38.4642C0.358924 37.7869 0.283918 37.1026 0.222054 36.4104L1.21808 36.3213C1.15853 35.655 1.11135 34.9807 1.07633 34.2978L0.0776439 34.349C0.0427559 33.6687 0.0197439 32.9805 0.00836846 32.2835L1.00824 32.2672C1.00274 31.9303 1 31.5913 1 31.25C1 30.9104 1.00484 30.572 1.01445 30.2351L0.0148562 30.2066C0.0347736 29.5081 0.0746127 28.8153 0.133736 28.129L1.13005 28.2149C1.18842 27.5373 1.26612 26.8662 1.36248 26.2026L0.372859 26.0589C0.473298 25.3672 0.593461 24.6831 0.732653 24.0074L1.71209 24.2092C1.84895 23.5448 2.00473 22.889 2.1787 22.2425L1.21305 21.9826C1.39472 21.3075 1.59569 20.6422 1.81522 19.9874L2.76335 20.3053C2.97885 19.6626 3.21272 19.0305 3.46419 18.41L2.5374 18.0344C2.79969 17.3872 3.08061 16.7521 3.37937 16.1299L4.28084 16.5627C4.57401 15.9522 4.88479 15.3547 5.21235 14.7712L4.34036 14.2817C4.68198 13.6731 5.0414 13.0791 5.41776 12.5007L6.25596 13.046C6.6248 12.4792 7.01027 11.9279 7.4115 11.3933L6.6117 10.7931C7.03042 10.2351 7.46594 9.69449 7.91731 9.17217L8.67393 9.82603C9.11511 9.31551 9.57173 8.82339 10.0428 8.3507L9.33453 7.64478C9.82669 7.15097 10.3344 6.67734 10.8566 6.22502L11.5113 6.98093C12.0196 6.54068 12.5419 6.12166 13.0772 5.72493L12.4818 4.92154C13.0413 4.50684 13.6148 4.11532 14.2013 3.74816L14.7319 4.59578C15.2993 4.24059 15.879 3.90933 16.47 3.6031L16.0099 2.71523C16.627 2.39544 17.2563 2.10164 17.8968 1.83506L18.2811 2.75828C18.8957 2.50243 19.5208 2.27285 20.1552 2.07064L19.8515 1.11786C20.5117 0.907453 21.1819 0.725341 21.861 0.572731L22.0803 1.5484C22.7264 1.40323 23.3808 1.28596 24.0428 1.1977L23.9106 0.206468C24.5945 0.115272 25.2861 0.0537141 25.9845 0.0229377L26.0285 1.02197C26.3595 1.00738 26.6922 1.00001 27.0264 1L74.0155 0.0229377ZM74.0155 0.0229377L73.9715 1.02197C73.6404 1.00738 73.3078 1.00001 72.9736 1L74.0155 0.0229377ZM28.0472 0.0229522C28.7282 0.0531823 29.4061 0.113167 30.0794 0.202308L29.9481 1.19366C30.594 1.27917 31.2357 1.39272 31.8719 1.53377L32.0884 0.557475C32.7517 0.704536 33.4092 0.88019 34.0594 1.08384L33.7605 2.03813C34.3811 2.23249 34.9952 2.45355 35.6014 2.70077L35.979 1.77481C36.6064 2.03071 37.2255 2.3134 37.835 2.62228L37.3829 3.51426C37.9627 3.80811 38.5337 4.12682 39.0947 4.4699L39.6164 3.61678C40.1932 3.96952 40.7595 4.34683 41.3141 4.74818L40.7278 5.5583C41.2546 5.93949 41.7707 6.34344 42.2749 6.76967L42.9205 6.00594C43.436 6.44168 43.9393 6.89963 44.4293 7.37928L43.7298 8.0939C43.9635 8.32261 44.194 8.55649 44.4214 8.7955L44.4232 8.79735C44.6542 9.03895 44.8814 9.28524 45.1047 9.5361L45.8517 8.87127C46.311 9.38735 46.754 9.92183 47.1799 10.4736L46.3883 11.0847C46.7964 11.6133 47.1884 12.1586 47.5637 12.7196L48.3949 12.1636C48.7531 12.6991 49.0964 13.2482 49.4241 13.8101C49.3799 13.889 49.3361 13.9681 49.2925 14.0474L48.6282 14.431C48.7958 14.7213 48.9592 15.0151 49.1183 15.3124L50.0002 16.9605L50.8818 15.3123C51.0407 15.0151 51.204 14.7213 51.3716 14.4311L50.7077 14.0479C50.664 13.9684 50.6201 13.8891 50.5758 13.8101C50.9034 13.2484 51.2465 12.6995 51.6046 12.1643L52.4357 12.7204C52.8109 12.1597 53.2029 11.6147 53.611 11.0864L52.8196 10.4751C53.2456 9.92361 53.6887 9.38947 54.1481 8.87378L54.8948 9.53899C55.1181 9.28834 55.3453 9.04228 55.5764 8.80093L55.5788 8.7984C55.8061 8.5593 56.0366 8.32533 56.2702 8.09654L55.5705 7.38212C56.0604 6.90229 56.5637 6.44416 57.0791 6.00824L57.7249 6.7718C58.2291 6.3454 58.7451 5.9413 59.2718 5.55995L58.6854 4.74996C59.2399 4.34845 59.8062 3.97098 60.3829 3.6181L60.9048 4.4711C61.4658 4.12788 62.0368 3.80904 62.6166 3.51507L62.1643 2.62317C62.7738 2.31415 63.3929 2.03135 64.0203 1.77535L64.3981 2.70125C65.0043 2.45393 65.6183 2.23279 66.239 2.03835L65.94 1.08409C66.5903 0.880361 67.2478 0.704643 67.9112 0.557532L68.1277 1.53382C68.764 1.39272 69.4057 1.27914 70.0516 1.19361L69.9203 0.202266C70.5937 0.113109 71.2716 0.0531246 71.9527 0.0229124L71.997 1.02193C72.3216 1.00753 72.647 1.0002 72.973 1L28.0472 0.0229522ZM28.0472 0.0229522L28.0029 1.02197C27.6783 1.00756 27.353 1.00021 27.027 1L28.0472 0.0229522ZM50 97.2953L49.3644 96.772C49.1504 96.5958 48.8951 96.3851 48.6021 96.1423L49.2401 95.3723C48.8055 95.0122 48.2872 94.581 47.6963 94.0863L47.0544 94.853C46.5858 94.4607 46.0717 94.0286 45.5175 93.5604L46.1628 92.7965C45.6795 92.3881 45.1655 91.9522 44.6246 91.4914L43.976 92.2525C43.4904 91.8388 42.9832 91.4049 42.4569 90.9527L43.1086 90.1942C42.6181 89.7728 42.1111 89.3355 41.5896 88.8837L40.9348 89.6395C40.4408 89.2115 39.9338 88.7705 39.4157 88.3178L40.0736 87.5647C39.5804 87.1337 39.077 86.6921 38.5651 86.2409L37.9039 86.9911C37.4104 86.5561 36.9091 86.1123 36.4011 85.6606L37.0657 84.9134C36.5733 84.4754 36.0747 84.03 35.5712 83.578L34.9032 84.3221C34.4101 83.8794 33.9122 83.4304 33.4109 82.9758L34.0826 82.235C33.5915 81.7898 33.0971 81.3393 32.6005 80.8843L31.925 81.6216C31.4338 81.1716 30.9405 80.7172 30.446 80.2591L31.1256 79.5255C30.6372 79.0731 30.1478 78.6171 29.6584 78.1583L28.9745 78.8879C28.4864 78.4303 27.9982 77.9698 27.5111 77.5072L28.1996 76.7821C27.7151 76.3219 27.2315 75.8597 26.7501 75.3962L26.0565 76.1165C25.5725 75.6505 25.0905 75.1831 24.6115 74.7149L25.3105 73.9998C24.8309 73.5309 24.3545 73.0614 23.8822 72.5919L23.1772 73.3012C22.6985 72.8253 22.224 72.3494 21.7547 71.8742L22.4663 71.1716C21.9931 70.6924 21.5254 70.2141 21.0644 69.7374L20.3455 70.4325C19.8738 69.9447 19.4087 69.4584 18.9515 68.9743L19.6785 68.2877C19.214 67.7958 18.7579 67.3065 18.3114 66.8207L17.5751 67.4973C17.1128 66.9943 16.6605 66.4945 16.2196 65.9991L16.9666 65.3343C16.5145 64.8263 16.0748 64.3232 15.6491 63.8261L14.8896 64.4766C14.4404 63.9522 14.006 63.4337 13.5883 62.9224L14.3627 62.2897C13.9263 61.7556 13.5089 61.2301 13.1124 60.7146L12.3198 61.3243C12.111 61.0529 11.9077 60.7838 11.7102 60.5174L12.5135 59.9219L11.7102 60.5174C11.5144 60.2533 11.3217 59.9897 11.1321 59.7265L11.9434 59.1419C11.5619 58.6124 11.1933 58.0849 10.8373 57.5588L10.0091 58.1193C9.63783 57.5706 9.27984 57.0232 8.93497 56.4763L9.78084 55.9429C9.43341 55.3919 9.0998 54.8419 8.77978 54.2923L7.9156 54.7955C7.582 54.2226 7.26265 53.6496 6.95736 53.076L7.84014 52.6062C7.53498 52.0327 7.24437 51.459 6.96807 50.8841L6.06679 51.3174C5.77973 50.7202 5.50762 50.1215 5.25023 49.5206L6.16945 49.1269C5.91466 48.5321 5.67477 47.9354 5.44949 47.336L4.51342 47.6878C4.28089 47.0691 4.06351 46.4474 3.86103 45.8219L4.81241 45.5139C4.61404 44.9012 4.43034 44.2849 4.26103 43.6641L3.29627 43.9272C3.12311 43.2923 2.96466 42.653 2.82065 42.0084L3.79658 41.7904C3.6568 41.1648 3.53091 40.534 3.41862 39.8972L2.43382 40.0709C2.3202 39.4265 2.22025 38.7765 2.13368 38.1201L3.1251 37.9894C3.04164 37.3566 2.97085 36.7173 2.91245 36.0708L1.91651 36.1608C1.85799 35.513 1.81172 34.8586 1.77741 34.1969L2.77607 34.1451C2.7431 33.5095 2.72136 32.8665 2.71061 32.2155L1.71075 32.232C1.70537 31.9066 1.7027 31.5792 1.7027 31.25C1.7027 30.8939 1.70829 30.5392 1.71936 30.1861L2.71887 30.2174C2.74059 29.5252 2.78404 28.8392 2.84848 28.1604L1.85295 28.0659C1.92045 27.3549 2.01028 26.6514 2.12165 25.9563L3.10905 26.1145C3.21853 25.4312 3.34944 24.7565 3.50095 24.0914L2.52592 23.8693C2.6846 23.1727 2.86521 22.4861 3.06687 21.8105L4.02509 22.0965C4.22295 21.4337 4.44167 20.782 4.68034 20.1425L3.74347 19.7928C3.9934 19.1232 4.2646 18.4663 4.5561 17.8232L5.46689 18.2361C5.75248 17.6061 6.05812 16.9902 6.38283 16.3893L5.50308 15.9139C5.84312 15.2846 6.20352 14.6712 6.58327 14.0747L7.42681 14.6118C7.79829 14.0283 8.18877 13.462 8.59717 12.9139L7.79534 12.3164C8.22323 11.7422 8.67036 11.1872 9.13562 10.6526L9.88994 11.3091C10.3438 10.7876 10.8153 10.2866 11.3033 9.80747L10.6027 9.09391C11.1147 8.59122 11.6446 8.1113 12.1911 7.65563L12.8315 8.42369C13.3615 7.98174 13.9075 7.56384 14.4683 7.17138L13.8948 6.35212C14.4835 5.9401 15.0882 5.55468 15.7077 5.19744L16.2073 6.06372C16.8039 5.71965 17.4144 5.4031 18.0375 5.11553L17.6185 4.20756C18.2707 3.90654 18.9366 3.63571 19.6148 3.39669L19.9472 4.33983C20.5944 4.11172 21.253 3.91405 21.9217 3.74825L21.6811 2.77764C22.3766 2.60518 23.0828 2.46564 23.7982 2.36052L23.9436 3.3499C24.6193 3.25061 25.3037 3.18351 25.9954 3.14997L25.9469 2.15114C26.3052 2.13377 26.6653 2.125 27.027 2.125C27.3483 2.125 27.6689 2.13204 27.9888 2.14607L27.945 3.14511C28.5579 3.17198 29.1679 3.22569 29.7737 3.30573L29.9047 2.31434C30.5406 2.39836 31.1722 2.51007 31.798 2.64888L31.5814 3.62515C32.1782 3.75752 32.7698 3.91574 33.3549 4.0993L33.6542 3.14515C34.2635 3.33629 34.8659 3.5536 35.4602 3.7965L35.0818 4.72216C35.646 4.95277 36.2028 5.2076 36.7512 5.48617L37.2041 4.59461C37.7707 4.88243 38.3283 5.19433 38.8758 5.52977L38.3533 6.38245C38.8718 6.7001 39.3811 7.03995 39.8803 7.40154L40.4669 6.5917C40.9792 6.96282 41.4809 7.35568 41.971 7.76977L41.3255 8.5336C41.7892 8.92537 42.2423 9.33717 42.684 9.76858L43.3827 9.0532C43.609 9.27418 43.8322 9.50004 44.0524 9.73072C44.2516 9.93902 44.4478 10.1508 44.6408 10.3659L43.8964 11.0337C44.2664 11.4461 44.6247 11.8716 44.9707 12.3094L45.7552 11.6894C46.1114 12.14 46.4548 12.6029 46.7851 13.0776L45.9644 13.6488C46.2807 14.1033 46.5847 14.5691 46.876 15.0454L47.7292 14.5238C48.0281 15.0127 48.3139 15.5121 48.5863 16.0215L47.7044 16.493C47.9654 16.9811 48.2136 17.4788 48.4487 17.9855L49.3558 17.5646C49.4763 17.8243 49.5935 18.0862 49.7072 18.3503M50 97.2953L49.7077 18.3514C49.7075 18.351 49.7073 18.3506 49.7072 18.3503M50 97.2953L50.6356 96.772C50.8496 96.5958 51.1049 96.3851 51.398 96.1423L50.7599 95.3723C51.1946 95.0121 51.7129 94.5809 52.3038 94.0862L52.9457 94.8529C53.4143 94.4606 53.9284 94.0285 54.4826 93.5603L53.8373 92.7964C54.3207 92.388 54.8347 91.9521 55.3756 91.4912L56.0242 92.2524C56.5098 91.8386 57.017 91.4047 57.5434 90.9526L56.8917 90.1941C57.3822 89.7727 57.8892 89.3353 58.4107 88.8835L59.0655 89.6393C59.5596 89.2113 60.0666 88.7703 60.5847 88.3175L59.9268 87.5645C60.42 87.1335 60.9234 86.6918 61.4353 86.2406L62.0966 86.9908C62.59 86.5559 63.0914 86.112 63.5994 85.6603L62.9348 84.9131C63.4273 84.4751 63.9259 84.0297 64.4294 83.5777L65.0974 84.3218C65.5906 83.8791 66.0884 83.43 66.5897 82.9755L65.9181 82.2347C66.4092 81.7894 66.9036 81.3389 67.4002 80.8839L68.0757 81.6213C68.5669 81.1713 69.0603 80.7168 69.5548 80.2588L68.8752 79.5252C69.3636 79.0727 69.8531 78.6167 70.3425 78.1579L71.0264 78.8875C71.5145 78.4299 72.0027 77.9695 72.4899 77.5069L71.8014 76.7817C72.286 76.3215 72.7696 75.8593 73.2511 75.3958L73.9446 76.1162C74.4286 75.6501 74.9107 75.1827 75.3897 74.7145L74.6907 73.9994C75.1703 73.5305 75.6468 73.061 76.1191 72.5916L76.8241 73.3008C77.3028 72.825 77.7774 72.3491 78.2467 71.8739L77.5352 71.1712C78.0084 70.6921 78.4761 70.2137 78.9372 69.737L79.656 70.4322C80.1278 69.9444 80.5929 69.4581 81.0501 68.974L80.3232 68.2873C80.7877 67.7955 81.2439 67.3062 81.6904 66.8204L82.4267 67.4971C82.889 66.994 83.3414 66.4943 83.7823 65.9989L83.0354 65.3341C83.4875 64.8261 83.9273 64.323 84.3531 63.8259L85.1125 64.4765C85.5618 63.9521 85.9962 63.4336 86.414 62.9223L85.6397 62.2895C86.0761 61.7555 86.4936 61.23 86.8902 60.7146L87.6827 61.3243C87.8915 61.0529 88.0949 60.7839 88.2924 60.5175L88.2926 60.5173C88.4883 60.2532 88.681 59.9895 88.8706 59.7263L88.0591 59.1419C88.4405 58.6123 88.809 58.0847 89.1649 57.5586L89.9932 58.1189C90.3644 57.5703 90.7222 57.0227 91.067 56.4758L90.2211 55.9426C90.5684 55.3915 90.9019 54.8416 91.2218 54.2919L92.0861 54.795C92.4196 54.222 92.7388 53.6491 93.044 53.0754L92.1612 52.6057C92.4662 52.0323 92.7568 51.4585 93.033 50.8836L93.9343 51.3167C94.2213 50.7195 94.4933 50.1209 94.7506 49.52L93.8314 49.1264C94.0861 48.5316 94.3259 47.9349 94.5511 47.3355L95.4872 47.6872C95.7197 47.0685 95.937 46.4468 96.1395 45.8214L95.188 45.5134C95.3864 44.9007 95.57 44.2844 95.7393 43.6636L96.7041 43.9267C96.8772 43.2918 97.0356 42.6525 97.1796 42.008L96.2036 41.79C96.3434 41.1644 96.4692 40.5336 96.5815 39.8969L97.5663 40.0705C97.6799 39.4262 97.7798 38.7762 97.8664 38.1198L96.875 37.9891C96.9584 37.3563 97.0292 36.7171 97.0876 36.0706L98.0835 36.1606C98.142 35.5128 98.1883 34.8585 98.2226 34.1968L97.2239 34.145C97.2569 33.5094 97.2786 32.8664 97.2894 32.2155L98.2893 32.232C98.2946 31.9065 98.2973 31.5792 98.2973 31.25C98.2973 30.8939 98.2917 30.5392 98.2806 30.1861L97.2811 30.2174C97.2594 29.5252 97.216 28.8392 97.1515 28.1604L98.1471 28.0659C98.0796 27.3549 97.9897 26.6514 97.8784 25.9563L96.891 26.1145C96.7815 25.4312 96.6506 24.7565 96.4991 24.0914L97.4741 23.8693C97.3154 23.1727 97.1348 22.4861 96.9331 21.8105L95.9749 22.0965C95.7771 21.4337 95.5583 20.782 95.3197 20.1425L96.2565 19.7928C96.0066 19.1232 95.7354 18.4663 95.4439 17.8232L94.5331 18.2361C94.2475 17.6062 93.9419 16.9902 93.6172 16.3893L94.4969 15.9139C94.1569 15.2846 93.7965 14.6712 93.4167 14.0747L92.5732 14.6118C92.2017 14.0283 91.8112 13.462 91.4028 12.9139L92.2047 12.3164C91.7768 11.7422 91.3297 11.1872 90.8644 10.6526L90.1101 11.3091C89.6562 10.7876 89.1847 10.2866 88.6967 9.80747L89.3973 9.09391C88.8853 8.59122 88.3554 8.1113 87.8089 7.65563L87.1685 8.42369C86.6385 7.98174 86.0925 7.56385 85.5318 7.17138L86.1052 6.35212C85.5165 5.9401 84.9118 5.55468 84.2923 5.19744L83.7928 6.06372C83.1961 5.71965 82.5856 5.4031 81.9625 5.11553L82.3815 4.20756C81.7293 3.90654 81.0634 3.63571 80.3852 3.39669L80.0528 4.33983C79.4056 4.11172 78.747 3.91405 78.0783 3.74825L78.3189 2.77764C77.6234 2.60518 76.9172 2.46564 76.2018 2.36052L76.0564 3.3499C75.3807 3.25061 74.6963 3.18351 74.0046 3.14997L74.0531 2.15114C73.6948 2.13377 73.3347 2.125 72.973 2.125L72.9724 2.125C72.6511 2.12519 72.3304 2.13243 72.0105 2.14664L72.0549 3.14565C71.442 3.17287 70.832 3.22688 70.2261 3.30716L70.0947 2.31582C69.4588 2.40007 68.8273 2.51192 68.2016 2.65076L68.4182 3.62702C67.8213 3.75946 67.2296 3.91766 66.6445 4.10106L66.3454 3.14684C65.7359 3.33788 65.1334 3.55498 64.5392 3.79753L64.9172 4.72337C64.3526 4.95383 63.7955 5.20841 63.2472 5.48659L62.7947 4.59479C62.2276 4.88248 61.6697 5.19419 61.1223 5.52933L61.6444 6.38222C61.1254 6.69987 60.616 7.03966 60.117 7.40109L59.5304 6.59125C59.0176 6.96274 58.5158 7.35595 58.026 7.77034L58.672 8.53372C58.2082 8.92611 57.7555 9.33848 57.3148 9.77039L56.6149 9.05617C56.389 9.27755 56.1662 9.50379 55.9466 9.73484C55.7478 9.94258 55.552 10.1538 55.3594 10.3683L56.1034 11.0364C55.7334 11.4486 55.375 11.8738 55.029 12.3114L54.2446 11.6911C53.8884 12.1415 53.5449 12.6043 53.2145 13.0788L54.0352 13.6502C53.7188 14.1046 53.4148 14.5702 53.1235 15.0464L52.2705 14.5246C51.9715 15.0134 51.6857 15.5127 51.4134 16.022L52.2952 16.4935C52.0343 16.9815 51.7861 17.4791 51.5511 17.9856L50.644 17.5648C50.5236 17.8243 50.4066 18.0861 50.293 18.35C50.2606 18.4247 50.2189 18.4667 50.1786 18.4931L50.7267 19.3295C50.2907 19.6152 49.7093 19.6152 49.2733 19.3295M50 97.2953L49.2733 19.3295M49.7072 18.3503C49.7395 18.4248 49.7812 18.4667 49.8214 18.4931L49.2733 19.3295M49.7072 18.3503L49.2733 19.3295" stroke="url(#paint0_linear_233_4299)" stroke-width="2" stroke-dasharray="2 2"/>
</g>
<defs>
<linearGradient id="paint0_linear_233_4299" x1="50" y1="0" x2="50" y2="99.4796" gradientUnits="userSpaceOnUse">
<stop stop-color="#FEE159"/>
<stop offset="1" stop-color="#F569A3"/>
</linearGradient>
<clipPath id="clip0_233_4299">
<rect width="100" height="100" fill="white"/>
</clipPath>
</defs>
</svg>
