<svg width="70" height="70" viewBox="0 0 70 70" fill="none" xmlns="http://www.w3.org/2000/svg">
<path d="M35 22.4219C32.5123 22.4219 30.0804 23.1596 28.012 24.5417C25.9435 25.9238 24.3313 27.8882 23.3793 30.1866C22.4273 32.4849 22.1782 35.014 22.6636 37.4539C23.1489 39.8938 24.3468 42.135 26.1059 43.8941C27.865 45.6532 30.1062 46.8511 32.5461 47.3364C34.986 47.8218 37.5151 47.5727 39.8134 46.6207C42.1118 45.6687 44.0762 44.0565 45.4583 41.988C46.8404 39.9196 47.5781 37.4877 47.5781 35C47.5781 31.6641 46.2529 28.4648 43.8941 26.1059C41.5352 23.7471 38.3359 22.4219 35 22.4219V22.4219ZM35 44.2969C33.1613 44.2969 31.3638 43.7516 29.8349 42.7301C28.3061 41.7085 27.1145 40.2565 26.4108 38.5578C25.7071 36.859 25.523 34.9897 25.8818 33.1863C26.2405 31.3829 27.1259 29.7263 28.4261 28.4261C29.7263 27.1259 31.3829 26.2405 33.1863 25.8818C34.9897 25.523 36.859 25.7071 38.5578 26.4108C40.2565 27.1145 41.7085 28.3061 42.7301 29.8349C43.7516 31.3638 44.2969 33.1613 44.2969 35C44.2897 37.4635 43.3079 39.824 41.5659 41.5659C39.824 43.3079 37.4635 44.2897 35 44.2969ZM47.0312 8.20312H22.9688C19.0527 8.20312 15.297 9.75878 12.5279 12.5279C9.75878 15.297 8.20313 19.0527 8.20312 22.9688V47.0312C8.20312 50.9473 9.75878 54.703 12.5279 57.4721C15.297 60.2412 19.0527 61.7969 22.9688 61.7969H47.0312C50.9473 61.7969 54.703 60.2412 57.4721 57.4721C60.2412 54.703 61.7969 50.9473 61.7969 47.0312V22.9688C61.7969 19.0527 60.2412 15.297 57.4721 12.5279C54.703 9.75878 50.9473 8.20313 47.0312 8.20312V8.20312ZM58.5156 47.0312C58.5156 50.0771 57.3057 52.9982 55.1519 55.1519C52.9982 57.3057 50.0771 58.5156 47.0312 58.5156H22.9688C19.9229 58.5156 17.0018 57.3057 14.8481 55.1519C12.6943 52.9982 11.4844 50.0771 11.4844 47.0312V22.9688C11.4844 19.9229 12.6943 17.0018 14.8481 14.8481C17.0018 12.6943 19.9229 11.4844 22.9688 11.4844H47.0312C50.0771 11.4844 52.9982 12.6943 55.1519 14.8481C57.3057 17.0018 58.5156 19.9229 58.5156 22.9688V47.0312ZM51.9531 20.7812C51.9531 21.3221 51.7928 21.8507 51.4923 22.3004C51.1918 22.7501 50.7648 23.1005 50.2651 23.3075C49.7655 23.5144 49.2157 23.5686 48.6853 23.4631C48.1549 23.3576 47.6677 23.0972 47.2853 22.7147C46.9028 22.3323 46.6424 21.8451 46.5369 21.3147C46.4314 20.7843 46.4856 20.2345 46.6925 19.7348C46.8995 19.2352 47.2499 18.8082 47.6996 18.5077C48.1493 18.2072 48.6779 18.0469 49.2188 18.0469C49.944 18.0469 50.6395 18.335 51.1522 18.8478C51.665 19.3605 51.9531 20.056 51.9531 20.7812Z" fill="white"/>
</svg>
