<svg width="24" height="24" viewBox="0 0 24 24" fill="none" xmlns="http://www.w3.org/2000/svg">
<path d="M18.75 9.75C18.75 7.95979 18.0388 6.2429 16.773 4.97703C15.5071 3.71116 13.7902 3 12 3C10.2098 3 8.4929 3.71116 7.22703 4.97703C5.96116 6.2429 5.25 7.95979 5.25 9.75C5.25 12.519 7.4655 16.128 12 20.451C16.5345 16.128 18.75 12.519 18.75 9.75ZM12 22.5C6.4995 17.5005 3.75 13.2495 3.75 9.75C3.75 7.56196 4.61919 5.46354 6.16637 3.91637C7.71354 2.36919 9.81196 1.5 12 1.5C14.188 1.5 16.2865 2.36919 17.8336 3.91637C19.3808 5.46354 20.25 7.56196 20.25 9.75C20.25 13.2495 17.5005 17.5005 12 22.5Z" fill="white"/>
<path d="M12 10.5C12.3978 10.5 12.7794 10.342 13.0607 10.0607C13.342 9.77936 13.5 9.39782 13.5 9C13.5 8.60218 13.342 8.22064 13.0607 7.93934C12.7794 7.65804 12.3978 7.5 12 7.5C11.6022 7.5 11.2206 7.65804 10.9393 7.93934C10.658 8.22064 10.5 8.60218 10.5 9C10.5 9.39782 10.658 9.77936 10.9393 10.0607C11.2206 10.342 11.6022 10.5 12 10.5ZM12 12C11.2044 12 10.4413 11.6839 9.87868 11.1213C9.31607 10.5587 9 9.79565 9 9C9 8.20435 9.31607 7.44129 9.87868 6.87868C10.4413 6.31607 11.2044 6 12 6C12.7956 6 13.5587 6.31607 14.1213 6.87868C14.6839 7.44129 15 8.20435 15 9C15 9.79565 14.6839 10.5587 14.1213 11.1213C13.5587 11.6839 12.7956 12 12 12ZM20.1 16.5L22.5 22.5H15.75V21H8.25V22.5H1.5L3.9 16.5H20.1ZM18.4845 16.5H5.5155L3.7155 21H20.2845L18.4845 16.5Z" fill="white"/>
</svg>
