<svg width="24" height="24" viewBox="0 0 24 24" fill="none" xmlns="http://www.w3.org/2000/svg">
<path d="M20 20H4C3.46957 20 2.96086 19.7893 2.58579 19.4142C2.21071 19.0391 2 18.5304 2 18V5.913C2.02243 5.39779 2.24301 4.91116 2.61568 4.5547C2.98835 4.19824 3.4843 3.99951 4 4H20C20.5304 4 21.0391 4.21071 21.4142 4.58579C21.7893 4.96086 22 5.46957 22 6V18C22 18.5304 21.7893 19.0391 21.4142 19.4142C21.0391 19.7893 20.5304 20 20 20ZM4 7.868V18H20V7.868L12 13.2L4 7.868ZM4.8 6L12 10.8L19.2 6H4.8Z" fill="white"/>
</svg>
