<svg width="65" height="123" viewBox="0 0 65 123" fill="none" xmlns="http://www.w3.org/2000/svg">
<path d="M25.5268 0.100908C15.016 -0.335748 5.73244 6.86145 3.76983 16.6867L1.00008 16.5716L0.872301 19.621L0.786989 21.6745L0.681155 24.2487L3.38131 24.3597C3.88658 29.5733 6.54912 34.2409 10.5131 37.5643L11.1599 39.6626L11.5704 46.0646L15.582 108.897L15.5055 110.738L18.3769 110.858L19.2839 122.551L21.5917 122.647L23.4689 111.066L26.3381 111.185L26.4146 109.346L31.0186 78.2049L35.6227 47.0638L36.5638 40.7213L37.3859 38.6807C41.6086 35.6963 44.649 31.2678 45.5859 26.1175L48.2893 26.2298L48.3963 23.6546L48.4817 21.5988L48.6084 18.5506L45.8364 18.4354C44.6933 8.48112 36.0355 0.537472 25.5268 0.100908ZM24.3911 106.297C24.3895 106.348 24.3777 106.397 24.3566 106.443C24.3355 106.49 24.3054 106.531 24.2681 106.565C24.2308 106.6 24.1871 106.626 24.1394 106.643C24.0917 106.661 24.0411 106.668 23.9905 106.666L18.2178 106.427C18.1674 106.425 18.118 106.413 18.0722 106.392C18.0265 106.37 17.9854 106.34 17.9513 106.303C17.8823 106.228 17.846 106.129 17.8502 106.027C17.8544 105.926 17.8989 105.83 17.9738 105.761C18.0487 105.692 18.1479 105.656 18.2497 105.66L24.0235 105.898C24.1252 105.902 24.2209 105.947 24.2898 106.021C24.3586 106.096 24.3951 106.195 24.3911 106.297ZM24.1646 99.6236C24.134 100.358 23.8131 101.049 23.2725 101.547C22.732 102.044 22.0161 102.307 21.2821 102.276C20.7834 102.254 20.3003 102.096 19.8851 101.818L23.8222 98.1912C24.0647 98.6286 24.1831 99.1239 24.1646 99.6236ZM18.9742 100.826C18.7427 100.401 18.6135 99.9145 18.6327 99.3971C18.6477 99.0337 18.7342 98.6767 18.8872 98.3466C19.0401 98.0166 19.2567 97.7199 19.5244 97.4736C19.792 97.2273 20.1057 97.0361 20.4473 96.911C20.7889 96.7859 21.1518 96.7294 21.5152 96.7446C22.0335 96.7672 22.5092 96.9376 22.9144 97.2046L18.9742 100.826ZM22.787 92.3278C22.7809 92.4707 22.7467 92.611 22.6863 92.7407C22.6259 92.8703 22.5406 92.9868 22.4352 93.0835C22.3298 93.1802 22.2064 93.2551 22.0721 93.3041C21.9377 93.3531 21.795 93.3752 21.6521 93.369C21.5093 93.3629 21.369 93.3286 21.2393 93.2683C21.1097 93.2079 20.9932 93.1226 20.8965 93.0172C20.7998 92.9118 20.7248 92.7884 20.6759 92.6541C20.6269 92.5197 20.6048 92.377 20.611 92.2341C20.6234 91.9456 20.7499 91.6737 20.9628 91.4785C21.1756 91.2832 21.4573 91.1805 21.7459 91.1929C22.0344 91.2054 22.3062 91.3319 22.5015 91.5448C22.6968 91.7576 22.7995 92.0393 22.787 92.3278ZM26.1865 76.9114L18.4974 76.5909L19.1523 60.8534L26.8426 61.1728L26.1865 76.9114ZM25.1561 56.249C24.8885 56.4955 24.575 56.6869 24.2334 56.8121C23.8918 56.9373 23.5289 56.9939 23.1654 56.9787C22.8019 56.9635 22.4449 56.8768 22.115 56.7235C21.785 56.5702 21.4885 56.3533 21.2425 56.0853C20.8908 55.7032 20.6751 55.2447 20.5786 54.7701L25.9257 54.9945C25.79 55.4757 25.5236 55.91 25.1561 56.249ZM25.9816 53.6483L20.6344 53.4262C20.7722 52.9613 21.0217 52.5255 21.4039 52.1738C21.6714 51.9274 21.9849 51.736 22.3264 51.6107C22.6679 51.4855 23.0307 51.4287 23.3942 51.4437C23.7576 51.4587 24.1146 51.5452 24.4446 51.6981C24.7746 51.8511 25.0713 52.0676 25.3176 52.3353C25.6693 52.7175 25.8839 53.1748 25.9816 53.6483ZM34.3072 45.4702L13.0147 44.5868L12.8037 41.2687L34.7946 42.1856L34.3072 45.4702ZM36.9209 35.1627L11.256 34.0976C8.79165 31.616 7.09237 28.4664 6.54711 24.9884L42.3769 26.4768C41.5449 29.8999 39.5838 32.893 36.9209 35.1627ZM45.3227 23.5258L3.85957 21.8021L3.94488 19.7486L45.4092 21.4712L45.3227 23.5258ZM42.7252 18.305L6.87997 16.8159C8.78022 8.73184 16.5937 2.80657 25.4003 3.17243C34.2047 3.53819 41.5031 10.0924 42.7252 18.305ZM57.6865 37.9109C53.2389 34.5563 48.7363 37.2711 48.7363 37.2711L53.7041 56.9124C52.095 55.589 49.4267 55.0851 46.6731 55.78C42.7212 56.7783 40.0968 59.8801 40.8111 62.7009C41.5253 65.5239 45.3058 67.0006 49.2599 66.0024C53.212 64.9996 55.8362 61.9024 55.1209 59.0804L51.1574 43.4068C51.7487 42.8457 52.9714 42.3816 55.492 42.658C60.7744 43.2395 64.5709 40.3603 64.5709 40.3603C64.5709 40.3603 61.55 40.8271 57.6865 37.9109Z" fill="white"/>
</svg>
