<svg width="40" height="40" viewBox="0 0 40 40" fill="none" xmlns="http://www.w3.org/2000/svg">
<path d="M16.4335 27.207L26.0429 20.2539C26.0828 20.2251 26.1153 20.1873 26.1378 20.1435C26.1602 20.0997 26.1719 20.0512 26.1719 20.0019C26.1719 19.9527 26.1602 19.9042 26.1378 19.8604C26.1153 19.8166 26.0828 19.7788 26.0429 19.75L16.4335 12.7969C16.2265 12.6484 15.9374 12.7969 15.9374 13.0508L15.9374 14.8828C15.9374 15.2812 16.1288 15.6602 16.453 15.8945L22.1327 20L16.453 24.1094C16.1288 24.3437 15.9374 24.7187 15.9374 25.1211L15.9374 26.9531C15.9374 27.207 16.2265 27.3555 16.4335 27.207Z" fill="white"/>
<path d="M20 37.5C29.6641 37.5 37.5 29.6641 37.5 20C37.5 10.3359 29.6641 2.5 20 2.5C10.3359 2.5 2.5 10.3359 2.5 20C2.5 29.6641 10.3359 37.5 20 37.5ZM20 5.46875C28.0234 5.46875 34.5312 11.9766 34.5312 20C34.5312 28.0234 28.0234 34.5313 20 34.5313C11.9766 34.5313 5.46875 28.0234 5.46875 20C5.46875 11.9766 11.9766 5.46875 20 5.46875Z" fill="white"/>
</svg>
