<svg width="32" height="32" viewBox="0 0 32 32" fill="none" xmlns="http://www.w3.org/2000/svg">
<path d="M23 9C23 10.8565 22.2625 12.637 20.9497 13.9497C19.637 15.2625 17.8565 16 16 16C14.1435 16 12.363 15.2625 11.0503 13.9497C9.7375 12.637 9 10.8565 9 9C9 7.14348 9.7375 5.36301 11.0503 4.05025C12.363 2.7375 14.1435 2 16 2C17.8565 2 19.637 2.7375 20.9497 4.05025C22.2625 5.36301 23 7.14348 23 9ZM21 9C21 7.67392 20.4732 6.40215 19.5355 5.46447C18.5979 4.52678 17.3261 4 16 4C14.6739 4 13.4021 4.52678 12.4645 5.46447C11.5268 6.40215 11 7.67392 11 9C11 10.3261 11.5268 11.5979 12.4645 12.5355C13.4021 13.4732 14.6739 14 16 14C17.3261 14 18.5979 13.4732 19.5355 12.5355C20.4732 11.5979 21 10.3261 21 9ZM7.5 18C6.57174 18 5.6815 18.3687 5.02513 19.0251C4.36875 19.6815 4 20.5717 4 21.5V22C4 24.393 5.523 26.417 7.685 27.793C9.859 29.177 12.802 30 16 30C19.198 30 22.14 29.177 24.315 27.793C26.477 26.417 28 24.393 28 22V21.5C28 20.5717 27.6313 19.6815 26.9749 19.0251C26.3185 18.3687 25.4283 18 24.5 18H7.5ZM6 21.5C6 21.1022 6.15804 20.7206 6.43934 20.4393C6.72064 20.158 7.10218 20 7.5 20H24.5C24.8978 20 25.2794 20.158 25.5607 20.4393C25.842 20.7206 26 21.1022 26 21.5V22C26 23.473 25.06 24.949 23.241 26.106C21.434 27.256 18.877 28 16 28C13.123 28 10.566 27.256 8.759 26.106C6.939 24.95 6 23.472 6 22V21.5Z" fill="white"/>
</svg>
