<svg width="20" height="20" viewBox="0 0 20 20" fill="none" xmlns="http://www.w3.org/2000/svg">
<path d="M17.4993 19.75H17.3718C2.63433 18.9025 0.541831 6.4675 0.249331 2.6725C0.225763 2.37744 0.260648 2.08062 0.351987 1.79906C0.443327 1.5175 0.589326 1.25673 0.781619 1.03169C0.973912 0.80665 1.20872 0.621766 1.47259 0.48763C1.73646 0.353493 2.0242 0.272741 2.31933 0.250001H6.45183C6.75225 0.24971 7.04583 0.339633 7.29456 0.508122C7.54328 0.676611 7.73568 0.915903 7.84683 1.195L8.98683 4C9.09659 4.27266 9.12383 4.57156 9.06517 4.85957C9.0065 5.14758 8.86451 5.412 8.65683 5.62L7.05933 7.2325C7.30887 8.65056 7.98797 9.95775 9.00475 10.9772C10.0215 11.9967 11.3269 12.6792 12.7443 12.9325L14.3718 11.32C14.583 11.1146 14.8499 10.9759 15.1393 10.9213C15.4287 10.8666 15.7278 10.8983 15.9993 11.0125L18.8268 12.145C19.1017 12.2597 19.3363 12.4536 19.5005 12.702C19.6648 12.9504 19.7514 13.2422 19.7493 13.54V17.5C19.7493 18.0967 19.5123 18.669 19.0903 19.091C18.6684 19.5129 18.0961 19.75 17.4993 19.75ZM2.49933 1.75C2.30042 1.75 2.10965 1.82902 1.969 1.96967C1.82835 2.11032 1.74933 2.30109 1.74933 2.5V2.56C2.09433 7 4.30683 17.5 17.4543 18.25C17.5529 18.2561 17.6516 18.2427 17.745 18.2105C17.8383 18.1783 17.9244 18.1281 17.9982 18.0626C18.0721 17.9971 18.1323 17.9176 18.1754 17.8288C18.2185 17.74 18.2436 17.6436 18.2493 17.545V13.54L15.4218 12.4075L13.2693 14.545L12.9093 14.5C6.38433 13.6825 5.49933 7.1575 5.49933 7.09L5.45433 6.73L7.58433 4.5775L6.45933 1.75H2.49933Z" fill="white"/>
</svg>
