<svg width="24" height="24" viewBox="0 0 24 24" fill="none" xmlns="http://www.w3.org/2000/svg">
<path d="M19.4993 21.75H19.3718C4.63433 20.9025 2.54183 8.4675 2.24933 4.6725C2.22576 4.37744 2.26065 4.08062 2.35199 3.79906C2.44333 3.5175 2.58933 3.25673 2.78162 3.03169C2.97391 2.80665 3.20872 2.62177 3.47259 2.48763C3.73646 2.35349 4.0242 2.27274 4.31933 2.25H8.45183C8.75225 2.24971 9.04583 2.33963 9.29456 2.50812C9.54328 2.67661 9.73568 2.9159 9.84683 3.195L10.9868 6C11.0966 6.27266 11.1238 6.57156 11.0652 6.85957C11.0065 7.14758 10.8645 7.412 10.6568 7.62L9.05933 9.2325C9.30887 10.6506 9.98797 11.9578 11.0048 12.9772C12.0215 13.9967 13.3269 14.6792 14.7443 14.9325L16.3718 13.32C16.583 13.1146 16.8499 12.9759 17.1393 12.9213C17.4287 12.8666 17.7278 12.8983 17.9993 13.0125L20.8268 14.145C21.1017 14.2597 21.3363 14.4536 21.5005 14.702C21.6648 14.9504 21.7514 15.2422 21.7493 15.54V19.5C21.7493 20.0967 21.5123 20.669 21.0903 21.091C20.6684 21.5129 20.0961 21.75 19.4993 21.75ZM4.49933 3.75C4.30042 3.75 4.10965 3.82902 3.969 3.96967C3.82835 4.11032 3.74933 4.30109 3.74933 4.5V4.56C4.09433 9 6.30683 19.5 19.4543 20.25C19.5529 20.2561 19.6516 20.2427 19.745 20.2105C19.8383 20.1783 19.9244 20.1281 19.9982 20.0626C20.0721 19.9971 20.1323 19.9176 20.1754 19.8288C20.2185 19.74 20.2436 19.6436 20.2493 19.545V15.54L17.4218 14.4075L15.2693 16.545L14.9093 16.5C8.38433 15.6825 7.49933 9.1575 7.49933 9.09L7.45433 8.73L9.58433 6.5775L8.45933 3.75H4.49933Z" fill="white"/>
</svg>
