<svg width="40" height="40" viewBox="0 0 40 40" fill="none" xmlns="http://www.w3.org/2000/svg">
<path d="M23.5665 12.793L13.9571 19.7461C13.9172 19.7749 13.8847 19.8127 13.8622 19.8565C13.8398 19.9003 13.8281 19.9488 13.8281 19.9981C13.8281 20.0473 13.8398 20.0958 13.8622 20.1396C13.8847 20.1834 13.9172 20.2212 13.9571 20.25L23.5665 27.2031C23.7735 27.3516 24.0626 27.2031 24.0626 26.9492V25.1172C24.0626 24.7188 23.8712 24.3398 23.547 24.1055L17.8673 20L23.547 15.8906C23.8712 15.6563 24.0626 15.2813 24.0626 14.8789V13.0469C24.0626 12.793 23.7735 12.6445 23.5665 12.793Z" fill="white"/>
<path d="M20 2.5C10.3359 2.5 2.5 10.3359 2.5 20C2.5 29.6641 10.3359 37.5 20 37.5C29.6641 37.5 37.5 29.6641 37.5 20C37.5 10.3359 29.6641 2.5 20 2.5ZM20 34.5312C11.9766 34.5312 5.46875 28.0234 5.46875 20C5.46875 11.9766 11.9766 5.46875 20 5.46875C28.0234 5.46875 34.5312 11.9766 34.5312 20C34.5312 28.0234 28.0234 34.5312 20 34.5312Z" fill="white"/>
</svg>
