<svg width="20" height="21" viewBox="0 0 20 21" fill="none" xmlns="http://www.w3.org/2000/svg">
<path d="M19 6.125C17.8065 6.125 16.6619 5.65089 15.818 4.80698C14.9741 3.96307 14.5 2.81847 14.5 1.625C14.5 1.42609 14.421 1.23532 14.2803 1.09467C14.1397 0.954018 13.9489 0.875 13.75 0.875H10C9.80109 0.875 9.61032 0.954018 9.46967 1.09467C9.32902 1.23532 9.25 1.42609 9.25 1.625V13.625C9.24927 13.9602 9.15867 14.2892 8.98764 14.5775C8.8166 14.8658 8.57139 15.103 8.27753 15.2644C7.98368 15.4258 7.65193 15.5054 7.31685 15.495C6.98176 15.4846 6.65559 15.3846 6.37231 15.2053C6.08903 15.026 5.85899 14.7741 5.70616 14.4757C5.55334 14.1773 5.4833 13.8434 5.50336 13.5087C5.52342 13.1741 5.63284 12.8509 5.82022 12.5729C6.00759 12.295 6.26608 12.0723 6.56875 11.9281C6.69778 11.8688 6.80704 11.7736 6.8835 11.654C6.95996 11.5343 7.0004 11.3951 7 11.2531V7.35312C7.00186 7.24195 6.97834 7.13181 6.93123 7.03109C6.88411 6.93036 6.81465 6.84171 6.72812 6.77188C6.64418 6.70271 6.5462 6.65264 6.44098 6.62512C6.33575 6.5976 6.2258 6.59329 6.11875 6.6125C4.78449 6.8515 3.54609 7.46613 2.5489 8.38428C1.55171 9.30242 0.837116 10.486 0.488989 11.796C0.140863 13.106 0.17365 14.4882 0.583504 15.7802C0.993358 17.0723 1.76327 18.2206 2.80287 19.0904C3.84248 19.9602 5.10863 20.5155 6.45272 20.6909C7.79681 20.8664 9.16307 20.6548 10.3911 20.081C11.6192 19.5072 12.6581 18.595 13.3859 17.4515C14.1137 16.3079 14.5002 14.9805 14.5 13.625V10.2781C15.8891 11.0027 17.4333 11.3791 19 11.375C19.1989 11.375 19.3897 11.296 19.5303 11.1553C19.671 11.0147 19.75 10.8239 19.75 10.625V6.875C19.75 6.67609 19.671 6.48532 19.5303 6.34467C19.3897 6.20402 19.1989 6.125 19 6.125ZM18.25 9.8375C16.786 9.70756 15.3839 9.18622 14.1906 8.32812C14.0777 8.2502 13.9459 8.2043 13.809 8.19531C13.6721 8.18632 13.5353 8.21458 13.4132 8.27707C13.2911 8.33957 13.1882 8.43397 13.1155 8.55025C13.0427 8.66654 13.0028 8.80036 13 8.9375V13.625C12.9995 14.6561 12.7155 15.6672 12.1792 16.5479C11.6428 17.4286 10.8747 18.1448 9.95885 18.6185C9.04296 19.0921 8.01449 19.3049 6.98585 19.2336C5.9572 19.1622 4.96795 18.8095 4.1262 18.214C3.28445 17.6185 2.6226 16.803 2.21295 15.8568C1.80331 14.9105 1.66165 13.8698 1.80344 12.8485C1.94523 11.8272 2.36503 10.8645 3.01696 10.0656C3.66888 9.26676 4.52785 8.66246 5.5 8.31875V10.8219C5.01507 11.1459 4.62238 11.59 4.36022 12.111C4.09805 12.6319 3.97536 13.212 4.0041 13.7945C4.03285 14.377 4.21205 14.9421 4.52423 15.4347C4.83641 15.9273 5.27092 16.3306 5.78539 16.6053C6.29986 16.88 6.87673 17.0167 7.45975 17.0021C8.04278 16.9874 8.61206 16.8219 9.11209 16.5218C9.61212 16.2216 10.0258 15.797 10.3129 15.2893C10.5999 14.7816 10.7505 14.2082 10.75 13.625V2.375H13.0469C13.2149 3.69626 13.8172 4.92425 14.759 5.86605C15.7008 6.80784 16.9287 7.41007 18.25 7.57812V9.8375Z" fill="white"/>
</svg>
