<svg width="70" height="70" viewBox="0 0 70 70" fill="none" xmlns="http://www.w3.org/2000/svg">
<path d="M61.25 21.3281C57.624 21.3281 54.1465 19.8877 51.5825 17.3237C49.0185 14.7598 47.5781 11.2823 47.5781 7.65625C47.5781 7.22113 47.4053 6.80383 47.0976 6.49615C46.7899 6.18848 46.3726 6.01563 45.9375 6.01563H35C34.5649 6.01562 34.1476 6.18848 33.8399 6.49615C33.5322 6.80383 33.3594 7.22113 33.3594 7.65625V42.6562C33.3589 43.7331 33.0694 44.79 32.5211 45.7168C31.9729 46.6435 31.1859 47.4061 30.2423 47.925C29.2987 48.4438 28.2332 48.6999 27.1569 48.6664C26.0806 48.633 25.0331 48.3113 24.1235 47.7348C23.214 47.1584 22.4759 46.3484 21.9862 45.3894C21.4965 44.4304 21.2732 43.3575 21.3396 42.2828C21.406 41.208 21.7596 40.1708 22.3636 39.2794C22.9676 38.3879 23.7999 37.6749 24.7734 37.2148C25.0516 37.0811 25.2864 36.8716 25.4508 36.6104C25.6153 36.3492 25.7027 36.0469 25.7031 35.7383V24.3633C25.7024 24.1215 25.6492 23.8828 25.5471 23.6636C25.445 23.4445 25.2964 23.2501 25.1118 23.0941C24.9271 22.938 24.7107 22.824 24.4776 22.7598C24.2445 22.6957 24.0002 22.683 23.7617 22.7227C19.9745 23.4039 16.4601 25.1508 13.6306 27.7586C10.8011 30.3665 8.77385 33.727 7.78663 37.4462C6.79942 41.1654 6.89315 45.0889 8.05685 48.7567C9.22055 52.4245 11.406 55.6844 14.3568 58.1541C17.3076 60.6239 20.9014 62.201 24.7168 62.7006C28.5322 63.2001 32.4109 62.6014 35.8981 60.9746C39.3853 59.3479 42.3363 56.7605 44.4051 53.5159C46.4738 50.2714 47.5745 46.5042 47.5781 42.6562V31.9648C51.748 34.3233 56.4593 35.5577 61.25 35.5469C61.6851 35.5469 62.1024 35.374 62.4101 35.0663C62.7178 34.7587 62.8906 34.3414 62.8906 33.9062V22.9688C62.8906 22.5336 62.7178 22.1163 62.4101 21.8087C62.1024 21.501 61.6851 21.3281 61.25 21.3281V21.3281ZM59.6094 32.2109C55.0251 31.9193 50.6169 30.3362 46.8945 27.6445C46.6514 27.469 46.3649 27.3634 46.066 27.3393C45.7671 27.3152 45.4673 27.3735 45.1992 27.5078C44.9301 27.6502 44.7042 27.8625 44.5455 28.1223C44.3867 28.3821 44.3008 28.6799 44.2969 28.9844V42.6562C44.2933 45.7961 43.4178 48.8732 41.7681 51.5447C40.1183 54.2162 37.7591 56.377 34.9533 57.7863C32.1476 59.1957 29.0055 59.7982 25.8775 59.5266C22.7494 59.255 19.7582 58.1201 17.2373 56.2483C14.7164 54.3766 12.7649 51.8415 11.6002 48.9257C10.4354 46.0099 10.1034 42.8279 10.641 39.7344C11.1785 36.641 12.5646 33.7576 14.6447 31.4056C16.7249 29.0537 19.4173 27.3256 22.4219 26.4141V34.7812C21.0484 35.6383 19.9226 36.8392 19.1558 38.2651C18.389 39.6909 18.0078 41.2922 18.05 42.9106C18.0922 44.529 18.5563 46.1083 19.3963 47.4923C20.2363 48.8762 21.4232 50.0168 22.8394 50.8012C24.2556 51.5856 25.8522 51.9865 27.4709 51.9644C29.0897 51.9422 30.6747 51.4978 32.0689 50.6749C33.4632 49.8521 34.6184 48.6794 35.4202 47.273C36.222 45.8666 36.6427 44.2752 36.6406 42.6562V9.29688H44.3789C44.7596 13.2071 46.4866 16.8637 49.2646 19.6417C52.0426 22.4197 55.6992 24.1466 59.6094 24.5273V32.2109Z" fill="white"/>
</svg>
