<svg width="24" height="24" viewBox="0 0 24 24" fill="none" xmlns="http://www.w3.org/2000/svg">
<path d="M21 7.125C19.8065 7.125 18.6619 6.65089 17.818 5.80698C16.9741 4.96307 16.5 3.81847 16.5 2.625C16.5 2.42609 16.421 2.23532 16.2803 2.09467C16.1397 1.95402 15.9489 1.875 15.75 1.875H12C11.8011 1.875 11.6103 1.95402 11.4697 2.09467C11.329 2.23532 11.25 2.42609 11.25 2.625V14.625C11.2493 14.9602 11.1587 15.2892 10.9876 15.5775C10.8166 15.8658 10.5714 16.103 10.2775 16.2644C9.98368 16.4258 9.65193 16.5054 9.31685 16.495C8.98176 16.4846 8.65559 16.3846 8.37231 16.2053C8.08903 16.026 7.85899 15.7741 7.70616 15.4757C7.55334 15.1773 7.4833 14.8434 7.50336 14.5087C7.52342 14.1741 7.63284 13.8509 7.82022 13.5729C8.00759 13.295 8.26608 13.0723 8.56875 12.9281C8.69778 12.8688 8.80704 12.7736 8.8835 12.654C8.95996 12.5343 9.0004 12.3951 9 12.2531V8.35312C9.00186 8.24195 8.97834 8.13181 8.93123 8.03109C8.88411 7.93036 8.81465 7.84171 8.72812 7.77188C8.64418 7.70271 8.5462 7.65264 8.44098 7.62512C8.33575 7.5976 8.2258 7.59329 8.11875 7.6125C6.78449 7.8515 5.54609 8.46614 4.5489 9.38428C3.55171 10.3024 2.83712 11.486 2.48899 12.796C2.14086 14.106 2.17365 15.4882 2.5835 16.7802C2.99336 18.0723 3.76327 19.2206 4.80287 20.0904C5.84248 20.9602 7.10863 21.5155 8.45272 21.6909C9.79681 21.8664 11.1631 21.6548 12.3911 21.081C13.6192 20.5072 14.6581 19.595 15.3859 18.4515C16.1137 17.3079 16.5002 15.9805 16.5 14.625V11.2781C17.8891 12.0027 19.4333 12.3791 21 12.375C21.1989 12.375 21.3897 12.296 21.5303 12.1553C21.671 12.0147 21.75 11.8239 21.75 11.625V7.875C21.75 7.67609 21.671 7.48532 21.5303 7.34467C21.3897 7.20402 21.1989 7.125 21 7.125ZM20.25 10.8375C18.786 10.7076 17.3839 10.1862 16.1906 9.32812C16.0777 9.2502 15.9459 9.2043 15.809 9.19531C15.6721 9.18632 15.5353 9.21458 15.4132 9.27707C15.2911 9.33957 15.1882 9.43397 15.1155 9.55025C15.0427 9.66654 15.0028 9.80036 15 9.9375V14.625C14.9995 15.6561 14.7155 16.6672 14.1792 17.5479C13.6428 18.4286 12.8747 19.1448 11.9589 19.6185C11.043 20.0921 10.0145 20.3049 8.98585 20.2336C7.9572 20.1622 6.96795 19.8095 6.1262 19.214C5.28445 18.6185 4.6226 17.803 4.21295 16.8568C3.80331 15.9105 3.66165 14.8698 3.80344 13.8485C3.94523 12.8272 4.36503 11.8645 5.01696 11.0656C5.66888 10.2668 6.52785 9.66246 7.5 9.31875V11.8219C7.01507 12.1459 6.62238 12.59 6.36022 13.111C6.09805 13.6319 5.97536 14.212 6.0041 14.7945C6.03285 15.377 6.21205 15.9421 6.52423 16.4347C6.83641 16.9273 7.27092 17.3306 7.78539 17.6053C8.29986 17.88 8.87673 18.0167 9.45975 18.0021C10.0428 17.9874 10.6121 17.8219 11.1121 17.5218C11.6121 17.2216 12.0258 16.797 12.3129 16.2893C12.5999 15.7816 12.7505 15.2082 12.75 14.625V3.375H15.0469C15.2149 4.69626 15.8172 5.92425 16.759 6.86605C17.7008 7.80784 18.9287 8.41007 20.25 8.57812V10.8375Z" fill="white"/>
</svg>
