<svg width="102" height="32" viewBox="0 0 102 32" fill="none" xmlns="http://www.w3.org/2000/svg">
<path d="M101.245 1.08713C101.23 0.811425 100.993 0.600515 100.718 0.61605L96.2249 0.869204C95.9491 0.884738 95.7382 1.12083 95.7538 1.39654C95.7693 1.67225 96.0054 1.88315 96.2811 1.86762L100.275 1.64259L100.5 5.63626C100.515 5.91197 100.751 6.12288 101.027 6.10734C101.303 6.09181 101.514 5.85571 101.498 5.58L101.245 1.08713ZM100.373 0.782155C83.7273 19.4156 71.3245 27.7009 61.5981 30.1001C51.9295 32.4851 44.8213 29.0708 38.6677 24.0068C35.5808 21.4665 32.7511 18.5247 29.9575 15.6902C27.1747 12.8667 24.4245 10.1463 21.5311 8.10676C18.632 6.06319 15.5561 4.67882 12.1168 4.56335C8.67407 4.44777 4.93487 5.60568 0.713391 8.51983L1.28149 9.34279C5.37601 6.51628 8.90797 5.45618 12.0832 5.56278C15.2619 5.6695 18.1508 6.94752 20.9549 8.92411C23.7648 10.9047 26.4563 13.5623 29.2453 16.3921C32.0234 19.2109 34.8956 22.1977 38.0323 24.779C44.3259 29.9582 51.7519 33.5589 61.8376 31.071C71.8654 28.5975 84.4369 20.1224 101.119 1.44836L100.373 0.782155Z" fill="white" fill-opacity="0.9"/>
</svg>
