<svg width="55" height="121" viewBox="0 0 55 121" fill="none" xmlns="http://www.w3.org/2000/svg">
<path d="M54.1811 119.491C54.4524 119.44 54.6307 119.178 54.5794 118.907L53.7429 114.485C53.6916 114.214 53.43 114.036 53.1587 114.087C52.8873 114.138 52.709 114.4 52.7603 114.671L53.5039 118.602L49.5736 119.345C49.3023 119.397 49.1239 119.658 49.1753 119.929C49.2266 120.201 49.4882 120.379 49.7595 120.328L54.1811 119.491ZM39.7217 0.659845C17.0722 25.061 5.8828 44.2285 2.06397 59.3935C-1.76344 74.5926 1.81851 85.7559 8.6389 94.0672C15.4356 102.35 25.4172 107.763 34.3371 111.569C38.8008 113.474 43.0162 114.983 46.4437 116.245C48.1604 116.877 49.675 117.445 50.9306 117.971C52.1922 118.5 53.1629 118.974 53.8065 119.413L54.3698 118.587C53.6384 118.088 52.5895 117.582 51.3171 117.049C50.0388 116.513 48.5051 115.938 46.7892 115.306C43.3514 114.041 39.1644 112.542 34.7296 110.649C25.8525 106.862 16.0528 101.525 9.41193 93.4328C2.79475 85.3691 -0.717082 74.5324 3.03369 59.6377C6.79303 44.709 17.8537 25.689 40.4546 1.34015L39.7217 0.659845Z" fill="white" fill-opacity="0.9"/>
</svg>
