<!-- Generated by IcoMoon.io -->
<svg version="1.1" xmlns="http://www.w3.org/2000/svg" width="32" height="32" viewBox="0 0 32 32">
<title>close</title>
<path fill="#fff" d="M21.418 11.087c0-0.137-0.112-0.25-0.25-0.25l-2.062 0.009-3.106 3.703-3.103-3.7-2.066-0.009c-0.138 0-0.25 0.109-0.25 0.25 0 0.059 0.022 0.116 0.059 0.163l4.066 4.844-4.066 4.841c-0.038 0.046-0.059 0.103-0.059 0.163 0 0.137 0.112 0.25 0.25 0.25l2.066-0.009 3.103-3.703 3.103 3.7 2.063 0.009c0.137 0 0.25-0.109 0.25-0.25 0-0.059-0.022-0.116-0.059-0.163l-4.059-4.841 4.066-4.844c0.037-0.044 0.056-0.103 0.056-0.163z"></path>
<path fill="#fff" d="M16 2.031c-7.731 0-14 6.269-14 14s6.269 14 14 14 14-6.269 14-14c0-7.731-6.269-14-14-14zM16 27.656c-6.419 0-11.625-5.206-11.625-11.625s5.206-11.625 11.625-11.625c6.419 0 11.625 5.206 11.625 11.625s-5.206 11.625-11.625 11.625z"></path>
</svg>
