<!-- Generated by IcoMoon.io -->
<svg version="1.1" xmlns="http://www.w3.org/2000/svg" width="32" height="32" viewBox="0 0 32 32">
<title>close</title>
<path fill="#fff" d="M19.471 16l10.585-10.56c0.463-0.463 0.724-1.092 0.724-1.748s-0.26-1.284-0.724-1.748c-0.463-0.464-1.092-0.724-1.748-0.724s-1.284 0.26-1.748 0.724l-10.56 10.585-10.56-10.585c-0.464-0.464-1.092-0.724-1.748-0.724s-1.284 0.26-1.748 0.724c-0.464 0.464-0.724 1.092-0.724 1.748s0.26 1.284 0.724 1.748l10.585 10.56-10.585 10.56c-0.231 0.229-0.414 0.501-0.539 0.801s-0.189 0.622-0.189 0.947 0.064 0.647 0.189 0.947c0.125 0.3 0.308 0.572 0.539 0.801 0.229 0.231 0.501 0.414 0.801 0.539s0.622 0.189 0.947 0.189c0.325 0 0.647-0.064 0.947-0.189s0.572-0.308 0.801-0.539l10.56-10.585 10.56 10.585c0.229 0.231 0.501 0.414 0.801 0.539s0.622 0.189 0.947 0.189c0.325 0 0.647-0.064 0.947-0.189s0.572-0.308 0.801-0.539c0.231-0.229 0.414-0.501 0.539-0.801s0.189-0.622 0.189-0.947-0.064-0.647-0.189-0.947c-0.125-0.3-0.308-0.572-0.539-0.801l-10.585-10.56z"></path>
</svg>
