<!-- Generated by IcoMoon.io -->
<svg version="1.1" xmlns="http://www.w3.org/2000/svg" width="20" height="32" viewBox="0 0 20 32">
<title>facebook</title>
<path d="M12.19 32h-6.095c-0.404 0-0.792-0.161-1.077-0.446s-0.446-0.673-0.446-1.078v-9.448h-3.048c-0.404 0-0.792-0.161-1.077-0.446s-0.446-0.673-0.446-1.078v-5.486c0-0.404 0.161-0.792 0.446-1.078s0.673-0.446 1.077-0.446h3.048v-2.59c0.107-2.322 1.129-4.507 2.842-6.077s3.979-2.399 6.301-2.304h4.571c0.404 0 0.792 0.161 1.078 0.446s0.446 0.673 0.446 1.077v5.486c0 0.404-0.161 0.792-0.446 1.078s-0.673 0.446-1.078 0.446h-4.571v2.438h4.571c0.235-0.002 0.468 0.051 0.679 0.154s0.396 0.254 0.54 0.44c0.142 0.189 0.238 0.409 0.28 0.642s0.030 0.472-0.036 0.699l-1.524 5.486c-0.092 0.33-0.293 0.619-0.569 0.82s-0.613 0.305-0.955 0.292h-2.987v9.448c0 0.404-0.161 0.792-0.446 1.078s-0.673 0.446-1.078 0.446zM7.619 28.952h3.048v-9.448c0-0.404 0.161-0.792 0.446-1.078s0.673-0.446 1.078-0.446h3.413l0.67-2.438h-4.084c-0.404 0-0.792-0.161-1.078-0.446s-0.446-0.673-0.446-1.078v-4.114c0.039-0.782 0.377-1.518 0.945-2.057s1.32-0.839 2.103-0.838h3.048v-2.438h-3.048c-1.513-0.092-3.002 0.416-4.143 1.415s-1.842 2.407-1.952 3.919v4.114c0 0.404-0.161 0.792-0.446 1.078s-0.673 0.446-1.077 0.446h-3.048v2.438h3.048c0.404 0 0.792 0.161 1.077 0.446s0.446 0.673 0.446 1.078v9.448z"></path>
</svg>
