<!-- Generated by IcoMoon.io -->
<svg version="1.1" xmlns="http://www.w3.org/2000/svg" width="32" height="32" viewBox="0 0 32 32">
<title>facebook</title>
<path fill="#fff" d="M17.333 29.333h-5.333c-0.354 0-0.693-0.141-0.943-0.391s-0.391-0.589-0.391-0.943v-8.267h-2.667c-0.354 0-0.693-0.141-0.943-0.391s-0.391-0.589-0.391-0.943v-4.8c0-0.354 0.14-0.693 0.391-0.943s0.589-0.391 0.943-0.391h2.667v-2.267c0.093-2.032 0.988-3.943 2.487-5.318s3.481-2.099 5.513-2.016h4c0.354 0 0.693 0.14 0.943 0.391s0.391 0.589 0.391 0.943v4.8c0 0.354-0.141 0.693-0.391 0.943s-0.589 0.391-0.943 0.391h-4v2.133h4c0.206-0.002 0.409 0.045 0.594 0.135s0.347 0.222 0.472 0.385c0.124 0.166 0.208 0.358 0.245 0.562s0.026 0.413-0.032 0.612l-1.333 4.8c-0.081 0.288-0.256 0.541-0.498 0.718s-0.536 0.267-0.835 0.256h-2.613v8.267c0 0.354-0.141 0.693-0.391 0.943s-0.589 0.391-0.943 0.391zM13.333 26.667h2.667v-8.267c0-0.354 0.141-0.693 0.391-0.943s0.589-0.39 0.943-0.39h2.987l0.587-2.133h-3.573c-0.354 0-0.693-0.141-0.943-0.391s-0.391-0.589-0.391-0.943v-3.6c0.034-0.684 0.33-1.328 0.827-1.8s1.155-0.734 1.84-0.733h2.667v-2.133h-2.667c-1.324-0.081-2.627 0.364-3.625 1.238s-1.612 2.106-1.708 3.429v3.6c0 0.354-0.14 0.693-0.391 0.943s-0.589 0.391-0.943 0.391h-2.667v2.133h2.667c0.354 0 0.693 0.14 0.943 0.39s0.391 0.589 0.391 0.943v8.267z"></path>
</svg>
