<!-- Generated by IcoMoon.io -->
<svg version="1.1" xmlns="http://www.w3.org/2000/svg" width="32" height="32" viewBox="0 0 32 32">
<title>heart</title>
<path fill="#fff" d="M23.351 0c-2.145 0.001-4.212 0.926-5.798 2.595-0.603 0.63-1.126 1.355-1.553 2.154-0.428-0.799-0.951-1.525-1.553-2.155-1.587-1.668-3.654-2.593-5.798-2.594-4.769 0-8.649 4.486-8.649 10 0 3.722 1.002 6.66 3.348 9.825 3.409 4.6 12.038 11.62 12.404 11.917 0.073 0.060 0.159 0.091 0.248 0.091s0.176-0.032 0.248-0.091c0.366-0.297 8.995-7.317 12.405-11.917 2.346-3.165 3.347-6.103 3.347-9.825 0-5.514-3.88-10-8.649-10zM27.997 19.175c-3.023 4.076-10.534 10.341-11.997 11.545-1.463-1.204-8.974-7.469-11.996-11.545-2.201-2.969-3.139-5.713-3.139-9.175 0-4.963 3.492-9 7.784-9 1.926 0 3.779 0.829 5.217 2.335 0.721 0.754 1.314 1.658 1.747 2.664 0.147 0.34 0.628 0.34 0.775 0 0.433-1.006 1.026-1.909 1.747-2.663 1.427-1.502 3.287-2.335 5.217-2.336 4.291 0 7.784 4.037 7.784 9 0 3.462-0.938 6.206-3.139 9.175z"></path>
</svg>
