<!-- Generated by IcoMoon.io -->
<svg version="1.1" xmlns="http://www.w3.org/2000/svg" width="32" height="32" viewBox="0 0 32 32">
<title>instagram-fs</title>
<path fill="#fff" d="M16 10.25c-1.137 0-2.249 0.337-3.194 0.969s-1.683 1.53-2.118 2.581c-0.435 1.051-0.549 2.207-0.327 3.322s0.769 2.14 1.574 2.944 1.829 1.352 2.944 1.574c1.115 0.222 2.272 0.108 3.322-0.327s1.949-1.172 2.581-2.118c0.632-0.946 0.969-2.057 0.969-3.194 0-1.525-0.606-2.988-1.684-4.066s-2.541-1.684-4.066-1.684v0zM16 20.25c-0.841 0-1.662-0.249-2.361-0.716s-1.244-1.131-1.565-1.907c-0.322-0.777-0.406-1.631-0.242-2.456s0.569-1.582 1.163-2.176 1.352-0.999 2.176-1.163c0.824-0.164 1.679-0.080 2.456 0.242s1.44 0.866 1.907 1.565c0.467 0.699 0.716 1.521 0.716 2.361-0.003 1.126-0.452 2.205-1.248 3.002s-1.875 1.245-3.002 1.248zM21.5 3.75h-11c-1.79 0-3.507 0.711-4.773 1.977s-1.977 2.983-1.977 4.773v11c0 1.79 0.711 3.507 1.977 4.773s2.983 1.977 4.773 1.977h11c1.79 0 3.507-0.711 4.773-1.977s1.977-2.983 1.977-4.773v-11c0-1.79-0.711-3.507-1.977-4.773s-2.983-1.977-4.773-1.977v0zM26.75 21.5c0 1.392-0.553 2.728-1.538 3.712s-2.32 1.538-3.712 1.538h-11c-1.392 0-2.728-0.553-3.712-1.538s-1.538-2.32-1.538-3.712v-11c0-1.392 0.553-2.728 1.538-3.712s2.32-1.538 3.712-1.538h11c1.392 0 2.728 0.553 3.712 1.538s1.538 2.32 1.538 3.712v11zM23.75 9.5c0 0.247-0.073 0.489-0.211 0.694s-0.333 0.366-0.561 0.46c-0.228 0.095-0.48 0.119-0.722 0.071s-0.465-0.167-0.64-0.342c-0.175-0.175-0.294-0.398-0.342-0.64s-0.023-0.494 0.071-0.722c0.095-0.228 0.255-0.424 0.46-0.561s0.447-0.211 0.695-0.211c0.332 0 0.649 0.132 0.884 0.366s0.366 0.552 0.366 0.884z"></path>
</svg>
