<!-- Generated by IcoMoon.io -->
<svg version="1.1" xmlns="http://www.w3.org/2000/svg" width="32" height="32" viewBox="0 0 32 32">
<title>location</title>
<path d="M25 13c0-2.387-0.948-4.676-2.636-6.364s-3.977-2.636-6.364-2.636-4.676 0.948-6.364 2.636c-1.688 1.688-2.636 3.977-2.636 6.364 0 3.692 2.954 8.504 9 14.268 6.046-5.764 9-10.576 9-14.268zM16 30c-7.334-6.666-11-12.334-11-17 0-2.917 1.159-5.715 3.222-7.778s4.861-3.222 7.778-3.222c2.917 0 5.715 1.159 7.778 3.222s3.222 4.861 3.222 7.778c0 4.666-3.666 10.334-11 17z"></path>
<path d="M16 14c0.53 0 1.039-0.211 1.414-0.586s0.586-0.884 0.586-1.414-0.211-1.039-0.586-1.414c-0.375-0.375-0.884-0.586-1.414-0.586s-1.039 0.211-1.414 0.586c-0.375 0.375-0.586 0.884-0.586 1.414s0.211 1.039 0.586 1.414c0.375 0.375 0.884 0.586 1.414 0.586zM16 16c-1.061 0-2.078-0.421-2.828-1.172s-1.172-1.768-1.172-2.828c0-1.061 0.421-2.078 1.172-2.828s1.768-1.172 2.828-1.172c1.061 0 2.078 0.421 2.828 1.172s1.172 1.768 1.172 2.828c0 1.061-0.421 2.078-1.172 2.828s-1.768 1.172-2.828 1.172zM26.8 22l3.2 8h-9v-2h-10v2h-9l3.2-8h21.6zM24.646 22h-17.292l-2.4 6h22.092l-2.4-6z"></path>
</svg>
