<!-- Generated by IcoMoon.io -->
<svg version="1.1" xmlns="http://www.w3.org/2000/svg" width="32" height="32" viewBox="0 0 32 32">
<title>mail</title>
<path fill="#fff" d="M26.667 26.667h-21.333c-0.707 0-1.386-0.281-1.886-0.781s-0.781-1.178-0.781-1.886v-16.116c0.030-0.687 0.324-1.336 0.821-1.811s1.158-0.74 1.846-0.74h21.333c0.707 0 1.385 0.281 1.886 0.781s0.781 1.178 0.781 1.886v16c0 0.707-0.281 1.385-0.781 1.886s-1.178 0.781-1.886 0.781zM5.333 10.491v13.509h21.333v-13.509l-10.667 7.109-10.667-7.109zM6.4 8l9.6 6.4 9.6-6.4h-19.2z"></path>
</svg>
