<!-- Generated by IcoMoon.io -->
<svg version="1.1" xmlns="http://www.w3.org/2000/svg" width="40" height="32" viewBox="0 0 40 32">
<title>mail</title>
<path d="M36 32h-32c-1.061 0-2.078-0.421-2.828-1.172s-1.172-1.768-1.172-2.828v-24.174c0.045-1.030 0.486-2.004 1.231-2.717s1.737-1.11 2.769-1.109h32c1.061 0 2.078 0.421 2.828 1.172s1.172 1.768 1.172 2.828v24c0 1.061-0.421 2.078-1.172 2.828s-1.768 1.172-2.828 1.172zM4 7.736v20.264h32v-20.264l-16 10.664-16-10.664zM5.6 4l14.4 9.6 14.4-9.6h-28.8z"></path>
</svg>
