<!-- Generated by IcoMoon.io -->
<svg version="1.1" xmlns="http://www.w3.org/2000/svg" width="32" height="32" viewBox="0 0 32 32">
<title>next</title>
<path fill="#fff" d="M13.147 21.766l7.688-5.562c0.032-0.023 0.058-0.053 0.076-0.088s0.027-0.074 0.027-0.113c0-0.039-0.009-0.078-0.027-0.113s-0.044-0.065-0.076-0.088l-7.688-5.562c-0.166-0.119-0.397 0-0.397 0.203v1.466c0 0.319 0.153 0.622 0.412 0.809l4.544 3.284-4.544 3.288c-0.259 0.187-0.412 0.487-0.412 0.809v1.466c0 0.203 0.231 0.322 0.397 0.203z"></path>
<path fill="#fff" d="M16 30c7.731 0 14-6.269 14-14s-6.269-14-14-14c-7.731 0-14 6.269-14 14s6.269 14 14 14zM16 4.375c6.419 0 11.625 5.206 11.625 11.625s-5.206 11.625-11.625 11.625c-6.419 0-11.625-5.206-11.625-11.625s5.206-11.625 11.625-11.625z"></path>
</svg>
