<!-- Generated by IcoMoon.io -->
<svg version="1.1" xmlns="http://www.w3.org/2000/svg" width="32" height="32" viewBox="0 0 32 32">
<title>people</title>
<path d="M23 9c0 1.857-0.738 3.637-2.050 4.95s-3.093 2.050-4.95 2.050-3.637-0.738-4.95-2.050c-1.313-1.313-2.050-3.093-2.050-4.95s0.738-3.637 2.050-4.95c1.313-1.313 3.093-2.050 4.95-2.050s3.637 0.737 4.95 2.050c1.313 1.313 2.050 3.093 2.050 4.95zM21 9c0-1.326-0.527-2.598-1.465-3.536s-2.209-1.464-3.535-1.464-2.598 0.527-3.535 1.464c-0.938 0.938-1.464 2.209-1.464 3.536s0.527 2.598 1.464 3.535c0.938 0.938 2.209 1.464 3.535 1.464s2.598-0.527 3.535-1.464c0.938-0.938 1.465-2.209 1.465-3.535zM7.5 18c-0.928 0-1.819 0.369-2.475 1.025s-1.025 1.547-1.025 2.475v0.5c0 2.393 1.523 4.417 3.685 5.793 2.174 1.384 5.117 2.207 8.315 2.207s6.14-0.823 8.315-2.207c2.162-1.376 3.685-3.4 3.685-5.793v-0.5c0-0.928-0.369-1.819-1.025-2.475s-1.547-1.025-2.475-1.025h-17zM6 21.5c0-0.398 0.158-0.779 0.439-1.061s0.663-0.439 1.061-0.439h17c0.398 0 0.779 0.158 1.061 0.439s0.439 0.663 0.439 1.061v0.5c0 1.473-0.94 2.949-2.759 4.106-1.807 1.15-4.364 1.894-7.241 1.894s-5.434-0.744-7.241-1.894c-1.82-1.156-2.759-2.634-2.759-4.106v-0.5z"></path>
</svg>
