<!-- Generated by IcoMoon.io -->
<svg version="1.1" xmlns="http://www.w3.org/2000/svg" width="32" height="32" viewBox="0 0 32 32">
<title>person</title>
<path d="M16 16c2.122 0 4.157-0.843 5.657-2.343s2.343-3.535 2.343-5.657-0.843-4.157-2.343-5.657c-1.5-1.5-3.535-2.343-5.657-2.343s-4.157 0.843-5.657 2.343c-1.5 1.5-2.343 3.535-2.343 5.657s0.843 4.157 2.343 5.657c1.5 1.5 3.535 2.343 5.657 2.343zM6.286 18.286c-1.061 0-2.078 0.421-2.828 1.172s-1.172 1.768-1.172 2.828v0.571c0 2.735 1.741 5.048 4.211 6.621 2.485 1.582 5.848 2.522 9.503 2.522s7.017-0.941 9.503-2.522c2.471-1.573 4.211-3.886 4.211-6.621v-0.571c0-1.061-0.421-2.078-1.172-2.828s-1.768-1.172-2.828-1.172h-19.429z"></path>
</svg>
