<!-- Generated by IcoMoon.io -->
<svg version="1.1" xmlns="http://www.w3.org/2000/svg" width="32" height="32" viewBox="0 0 32 32">
<title>phone</title>
<path fill="#fff" d="M27.999 31.6h-0.204c-23.58-1.356-26.928-21.252-27.396-27.324-0.038-0.472 0.018-0.947 0.164-1.397s0.38-0.868 0.687-1.228c0.308-0.36 0.683-0.656 1.106-0.871s0.883-0.344 1.355-0.38h6.612c0.481-0 0.95 0.143 1.348 0.413s0.706 0.652 0.884 1.099l1.824 4.488c0.176 0.436 0.219 0.915 0.125 1.375s-0.321 0.884-0.653 1.217l-2.556 2.58c0.399 2.269 1.486 4.36 3.113 5.992s3.715 2.723 5.983 3.128l2.604-2.58c0.338-0.329 0.765-0.551 1.228-0.638s0.942-0.037 1.376 0.146l4.524 1.812c0.44 0.184 0.815 0.494 1.078 0.891s0.401 0.864 0.398 1.341v6.336c0 0.955-0.379 1.87-1.054 2.546s-1.591 1.054-2.546 1.054zM3.999 2.8c-0.318 0-0.623 0.126-0.849 0.351s-0.351 0.53-0.351 0.849v0.096c0.552 7.104 4.092 23.904 25.128 25.104 0.158 0.010 0.316-0.012 0.465-0.063s0.287-0.132 0.405-0.237c0.118-0.105 0.215-0.232 0.284-0.374s0.109-0.296 0.118-0.454v-6.408l-4.524-1.812-3.444 3.42-0.576-0.072c-10.44-1.308-11.856-11.748-11.856-11.856l-0.072-0.576 3.408-3.444-1.8-4.524h-6.336z"></path>
</svg>
