<!-- Generated by IcoMoon.io -->
<svg version="1.1" xmlns="http://www.w3.org/2000/svg" width="32" height="32" viewBox="0 0 32 32">
<title>phone</title>
<path fill="#fff" d="M25.999 29h-0.17c-19.65-1.13-22.44-17.71-22.83-22.77-0.031-0.393 0.015-0.789 0.137-1.165s0.316-0.723 0.573-1.023c0.256-0.3 0.569-0.547 0.921-0.725s0.735-0.287 1.129-0.317h5.51c0.401-0 0.792 0.119 1.124 0.344s0.588 0.544 0.736 0.916l1.52 3.74c0.146 0.364 0.183 0.762 0.105 1.146s-0.268 0.737-0.545 1.014l-2.13 2.15c0.333 1.891 1.238 3.634 2.594 4.993s3.096 2.269 4.986 2.607l2.17-2.15c0.282-0.274 0.637-0.459 1.023-0.532s0.785-0.031 1.147 0.122l3.77 1.51c0.367 0.153 0.679 0.411 0.898 0.743s0.335 0.72 0.332 1.117v5.28c0 0.796-0.316 1.559-0.879 2.121s-1.326 0.879-2.121 0.879zM5.999 5c-0.265 0-0.52 0.105-0.707 0.293s-0.293 0.442-0.293 0.707v0.080c0.46 5.92 3.41 19.92 20.94 20.92 0.131 0.008 0.263-0.010 0.388-0.053s0.239-0.11 0.338-0.197c0.099-0.087 0.179-0.193 0.236-0.312s0.091-0.247 0.099-0.378v-5.34l-3.77-1.51-2.87 2.85-0.48-0.060c-8.7-1.090-9.88-9.79-9.88-9.88l-0.060-0.48 2.84-2.87-1.5-3.77h-5.28z"></path>
</svg>
