<!-- Generated by IcoMoon.io -->
<svg version="1.1" xmlns="http://www.w3.org/2000/svg" width="32" height="32" viewBox="0 0 32 32">
<title>tiktok-fs</title>
<path fill="#fff" d="M28 9.75c-1.658 0-3.247-0.658-4.419-1.831s-1.831-2.762-1.831-4.419c0-0.199-0.079-0.39-0.22-0.53s-0.331-0.22-0.53-0.22h-5c-0.199 0-0.39 0.079-0.53 0.22s-0.22 0.331-0.22 0.53v16c-0 0.492-0.133 0.975-0.383 1.399s-0.61 0.772-1.042 1.009c-0.431 0.237-0.918 0.354-1.41 0.339s-0.971-0.162-1.387-0.426c-0.416-0.264-0.753-0.634-0.977-1.072s-0.326-0.929-0.296-1.42c0.030-0.491 0.192-0.965 0.468-1.373s0.657-0.733 1.102-0.944c0.127-0.061 0.235-0.157 0.31-0.276s0.115-0.258 0.115-0.399v-5.2c-0-0.111-0.025-0.22-0.071-0.32s-0.115-0.189-0.199-0.26c-0.084-0.071-0.183-0.123-0.29-0.153s-0.218-0.035-0.327-0.017c-1.731 0.311-3.338 1.11-4.631 2.302s-2.22 2.728-2.672 4.429-0.408 3.494 0.124 5.171c0.532 1.677 1.531 3.167 2.88 4.296s2.992 1.85 4.736 2.078c1.744 0.228 3.517-0.045 5.111-0.789s2.943-1.926 3.889-3.41c0.946-1.483 1.449-3.205 1.45-4.964v-4.887c1.906 1.078 4.060 1.642 6.25 1.638 0.199 0 0.39-0.079 0.53-0.22s0.22-0.331 0.22-0.53v-5c0-0.199-0.079-0.39-0.22-0.53s-0.331-0.22-0.53-0.22v0zM27.25 14.725c-2.096-0.133-4.111-0.857-5.813-2.088-0.111-0.080-0.242-0.129-0.379-0.14s-0.274 0.016-0.396 0.077c-0.123 0.065-0.226 0.162-0.299 0.281s-0.112 0.255-0.114 0.394v6.25c-0.002 1.435-0.402 2.842-1.156 4.063s-1.833 2.209-3.115 2.853c-1.283 0.644-2.719 0.92-4.149 0.796s-2.797-0.643-3.95-1.499c-1.152-0.856-2.045-2.015-2.577-3.347s-0.684-2.788-0.439-4.202c0.246-1.414 0.879-2.732 1.83-3.807s2.182-1.865 3.555-2.282v3.825c-0.628 0.392-1.143 0.941-1.493 1.593s-0.525 1.384-0.505 2.124 0.231 1.462 0.615 2.095c0.384 0.633 0.927 1.154 1.574 1.513s1.377 0.542 2.117 0.532c0.74-0.010 1.465-0.213 2.102-0.59s1.165-0.912 1.532-1.555 0.559-1.37 0.558-2.111v-15.25h3.538c0.174 1.788 0.964 3.459 2.233 4.729s2.942 2.059 4.729 2.233v3.513z"></path>
</svg>
