<!-- Generated by IcoMoon.io -->
<svg version="1.1" xmlns="http://www.w3.org/2000/svg" width="32" height="32" viewBox="0 0 32 32">
<title>tiktok</title>
<path fill="#fff" d="M28 9.5c-1.591 0-3.117-0.632-4.243-1.757s-1.757-2.651-1.757-4.243c0-0.265-0.105-0.52-0.293-0.707s-0.442-0.293-0.707-0.293h-5c-0.265 0-0.52 0.105-0.707 0.293s-0.293 0.442-0.293 0.707v16c-0.001 0.447-0.122 0.886-0.35 1.27s-0.555 0.701-0.947 0.916c-0.392 0.215-0.834 0.321-1.281 0.307s-0.882-0.147-1.259-0.386c-0.378-0.239-0.684-0.575-0.888-0.973s-0.297-0.843-0.27-1.289c0.027-0.446 0.173-0.877 0.422-1.248s0.594-0.667 0.998-0.86c0.172-0.079 0.318-0.206 0.42-0.365s0.156-0.345 0.155-0.535v-5.2c0.002-0.148-0.029-0.295-0.092-0.429s-0.155-0.252-0.271-0.346c-0.112-0.092-0.243-0.159-0.383-0.196s-0.287-0.042-0.43-0.017c-1.779 0.319-3.43 1.138-4.76 2.362s-2.282 2.802-2.747 4.549c-0.464 1.747-0.42 3.59 0.126 5.312s1.573 3.254 2.959 4.414 3.074 1.9 4.866 2.134c1.792 0.234 3.614-0.048 5.251-0.813s3.023-1.981 3.993-3.506c0.97-1.525 1.486-3.295 1.485-5.102v-4.463c1.852 0.966 3.911 1.468 6 1.463 0.265 0 0.52-0.105 0.707-0.293s0.293-0.442 0.293-0.707v-5c0-0.265-0.105-0.52-0.293-0.707s-0.442-0.293-0.707-0.293zM27 14.45c-1.952-0.173-3.821-0.868-5.413-2.012-0.151-0.104-0.326-0.165-0.509-0.177s-0.365 0.026-0.528 0.109c-0.163 0.083-0.3 0.209-0.397 0.364s-0.15 0.333-0.154 0.516v6.25c-0.001 1.375-0.379 2.723-1.094 3.897s-1.739 2.129-2.96 2.761c-1.221 0.631-2.593 0.915-3.964 0.82s-2.691-0.565-3.813-1.359-2.005-1.881-2.551-3.143c-0.546-1.262-0.735-2.649-0.546-4.011s0.749-2.645 1.618-3.711c0.869-1.065 2.015-1.871 3.311-2.329v3.338c-0.647 0.432-1.17 1.024-1.52 1.719s-0.513 1.468-0.475 2.245 0.277 1.53 0.694 2.187c0.416 0.657 0.996 1.195 1.682 1.561s1.455 0.549 2.232 0.529c0.777-0.020 1.536-0.24 2.203-0.64s1.218-0.966 1.601-1.643c0.383-0.677 0.583-1.441 0.583-2.219v-15h3.063c0.224 1.762 1.027 3.399 2.283 4.655s2.893 2.059 4.655 2.283v3.012z"></path>
</svg>
