<!-- Generated by IcoMoon.io -->
<svg version="1.1" xmlns="http://www.w3.org/2000/svg" width="30" height="32" viewBox="0 0 30 32">
<title>tiktok</title>
<path d="M28.952 9.333c-1.819 0-3.563-0.722-4.849-2.008s-2.008-3.030-2.008-4.849c0-0.303-0.12-0.594-0.335-0.808s-0.505-0.335-0.808-0.335h-5.714c-0.303 0-0.594 0.12-0.808 0.335s-0.335 0.505-0.335 0.808v18.286c-0.001 0.511-0.139 1.012-0.4 1.451s-0.634 0.801-1.082 1.047c-0.448 0.246-0.953 0.367-1.464 0.351s-1.008-0.168-1.439-0.441c-0.432-0.273-0.782-0.657-1.015-1.112s-0.34-0.963-0.309-1.474c0.031-0.51 0.197-1.002 0.483-1.426s0.679-0.763 1.141-0.983c0.197-0.090 0.363-0.235 0.48-0.418s0.178-0.395 0.178-0.611v-5.943c0.003-0.169-0.033-0.337-0.105-0.491s-0.178-0.289-0.309-0.395c-0.128-0.105-0.277-0.182-0.438-0.224s-0.328-0.049-0.491-0.019c-2.033 0.364-3.92 1.301-5.44 2.7s-2.608 3.203-3.139 5.199c-0.53 1.996-0.481 4.102 0.144 6.071s1.798 3.719 3.382 5.044 3.514 2.172 5.562 2.439c2.048 0.267 4.13-0.055 6.001-0.929s3.454-2.264 4.564-4.007c1.109-1.743 1.698-3.765 1.698-5.831v-5.1c2.117 1.104 4.47 1.678 6.857 1.671 0.303 0 0.594-0.12 0.808-0.335s0.335-0.505 0.335-0.808v-5.714c0-0.303-0.12-0.594-0.335-0.808s-0.505-0.335-0.808-0.335zM27.81 14.99c-2.231-0.198-4.367-0.992-6.186-2.3-0.172-0.119-0.373-0.189-0.581-0.202s-0.417 0.029-0.603 0.125c-0.186 0.095-0.343 0.239-0.454 0.416s-0.172 0.381-0.176 0.59v7.143c-0.001 1.571-0.434 3.112-1.251 4.454s-1.988 2.433-3.383 3.155c-1.396 0.722-2.963 1.046-4.53 0.937s-3.075-0.646-4.358-1.554-2.291-2.15-2.915-3.592c-0.624-1.442-0.84-3.028-0.624-4.584s0.856-3.023 1.849-4.241c0.993-1.217 2.302-2.138 3.784-2.662v3.814c-0.739 0.494-1.337 1.17-1.737 1.964s-0.586 1.678-0.543 2.565 0.317 1.749 0.793 2.499c0.476 0.751 1.138 1.365 1.922 1.784s1.663 0.627 2.551 0.605c0.888-0.022 1.756-0.275 2.518-0.732s1.392-1.104 1.83-1.878c0.437-0.774 0.667-1.647 0.666-2.536v-17.143h3.5c0.256 2.013 1.174 3.885 2.609 5.32s3.306 2.353 5.32 2.609v3.443z"></path>
</svg>
