<!-- Generated by IcoMoon.io -->
<svg version="1.1" xmlns="http://www.w3.org/2000/svg" width="15" height="32" viewBox="0 0 15 32">
<title>Vector-1</title>
<path fill="#fff" opacity="0.9" d="M14.329 31.601c0.072-0.014 0.119-0.083 0.105-0.154l-0.221-1.169c-0.014-0.072-0.083-0.119-0.155-0.105s-0.119 0.083-0.105 0.154l0.197 1.040-1.039 0.197c-0.072 0.014-0.119 0.083-0.105 0.154s0.083 0.119 0.155 0.106l1.169-0.221zM10.505 0.174c-5.99 6.453-8.949 11.522-9.959 15.533-1.012 4.020-0.065 6.972 1.739 9.17 1.797 2.191 4.437 3.622 6.796 4.629 1.18 0.504 2.295 0.903 3.202 1.237 0.454 0.167 0.855 0.317 1.187 0.456 0.334 0.14 0.59 0.265 0.761 0.381l0.149-0.218c-0.193-0.132-0.471-0.266-0.807-0.407-0.338-0.142-0.744-0.294-1.197-0.461-0.909-0.335-2.016-0.731-3.189-1.232-2.348-1.002-4.939-2.413-6.696-4.553-1.75-2.133-2.679-4.998-1.687-8.938 0.994-3.948 3.919-8.978 9.896-15.418l-0.194-0.18z"></path>
</svg>
