<!-- Generated by IcoMoon.io -->
<svg version="1.1" xmlns="http://www.w3.org/2000/svg" width="102" height="32" viewBox="0 0 102 32">
<title>Vector-4</title>
<path fill="#fff" opacity="0.9" d="M101.245 1.087c-0.015-0.276-0.252-0.487-0.527-0.471l-4.493 0.253c-0.276 0.016-0.487 0.252-0.471 0.527s0.252 0.487 0.527 0.471l3.994-0.225 0.225 3.994c0.015 0.276 0.251 0.487 0.527 0.471s0.487-0.252 0.471-0.527l-0.253-4.493zM100.373 0.782c-16.646 18.633-29.049 26.919-38.775 29.318-9.669 2.385-16.777-1.029-22.93-6.093-3.087-2.54-5.917-5.482-8.71-8.317-2.783-2.823-5.533-5.544-8.426-7.583-2.899-2.044-5.975-3.428-9.414-3.543-3.443-0.116-7.182 1.042-11.403 3.956l0.568 0.823c4.095-2.826 7.626-3.887 10.802-3.78 3.179 0.107 6.068 1.385 8.872 3.361 2.81 1.981 5.501 4.638 8.29 7.468 2.778 2.819 5.65 5.806 8.787 8.387 6.294 5.179 13.72 8.78 23.805 6.292 10.028-2.474 22.599-10.949 39.281-29.623l-0.746-0.666z"></path>
</svg>
