<!-- Generated by IcoMoon.io -->
<svg version="1.1" xmlns="http://www.w3.org/2000/svg" width="32" height="32" viewBox="0 0 32 32">
<title>workinghours</title>
<path fill="#fff" d="M29.532 12.875h-8c-0.137 0-0.25 0.113-0.25 0.25v1.5c0 0.137 0.113 0.25 0.25 0.25h8c0.137 0 0.25-0.112 0.25-0.25v-1.5c0-0.137-0.113-0.25-0.25-0.25zM25.345 17.125h-3.813c-0.137 0-0.25 0.112-0.25 0.25v1.5c0 0.138 0.113 0.25 0.25 0.25h3.813c0.137 0 0.25-0.113 0.25-0.25v-1.5c0-0.137-0.113-0.25-0.25-0.25zM14.917 10.078h-1.353c-0.194 0-0.35 0.156-0.35 0.35v7.75c0 0.113 0.053 0.216 0.144 0.281l4.653 3.394c0.156 0.113 0.375 0.081 0.487-0.075l0.803-1.097v-0.003c0.113-0.156 0.078-0.375-0.078-0.487l-3.959-2.863v-6.9c0.003-0.194-0.156-0.35-0.347-0.35v0z"></path>
<path fill="#fff" d="M25.15 21.060h-1.806c-0.175 0-0.341 0.091-0.434 0.241-0.397 0.628-0.859 1.209-1.391 1.741-0.916 0.916-1.981 1.634-3.166 2.134-1.228 0.519-2.531 0.781-3.875 0.781-1.347 0-2.65-0.263-3.875-0.781-1.184-0.5-2.25-1.219-3.166-2.134s-1.634-1.981-2.134-3.166c-0.519-1.225-0.781-2.528-0.781-3.875s0.263-2.647 0.781-3.875c0.5-1.184 1.219-2.25 2.134-3.166s1.981-1.634 3.166-2.134c1.225-0.519 2.531-0.781 3.875-0.781 1.347 0 2.65 0.263 3.875 0.781 1.184 0.5 2.25 1.219 3.166 2.134 0.531 0.531 0.994 1.113 1.391 1.741 0.094 0.15 0.259 0.241 0.434 0.241h1.806c0.216 0 0.353-0.225 0.256-0.416-2.037-4.053-6.169-6.688-10.781-6.741-6.753-0.084-12.363 5.444-12.375 12.191-0.013 6.759 5.466 12.244 12.225 12.244 4.672 0 8.872-2.644 10.931-6.744 0.097-0.191-0.044-0.416-0.256-0.416v0z"></path>
</svg>
