<svg width="12" height="8" viewBox="0 0 12 8" fill="none" xmlns="http://www.w3.org/2000/svg">
<path d="M10.796 1L5.99998 6.481L1.20398 1H10.796ZM0.450983 1.659L5.24698 7.139C5.34084 7.24641 5.4566 7.3325 5.58647 7.39148C5.71635 7.45046 5.85734 7.48098 5.99998 7.48098C6.14262 7.48098 6.28362 7.45046 6.41349 7.39148C6.54337 7.3325 6.65912 7.24641 6.75298 7.139L11.549 1.659C12.115 1.012 11.655 0 10.796 0H1.20398C1.01174 -0.000164459 0.823521 0.0550878 0.661871 0.159141C0.500221 0.263194 0.37199 0.411637 0.292534 0.586693C0.213078 0.761749 0.185765 0.955998 0.213867 1.14618C0.241969 1.33636 0.324294 1.51441 0.450983 1.659Z" fill="#979797"/>
<path d="M10.796 1L5.99998 6.481L1.20398 1H10.796ZM0.450983 1.659L5.24698 7.139C5.34084 7.24641 5.4566 7.3325 5.58647 7.39148C5.71635 7.45046 5.85734 7.48098 5.99998 7.48098C6.14262 7.48098 6.28362 7.45046 6.41349 7.39148C6.54337 7.3325 6.65912 7.24641 6.75298 7.139L11.549 1.659C12.115 1.012 11.655 0 10.796 0H1.20398C1.01174 -0.000164459 0.823521 0.0550878 0.661871 0.159141C0.500221 0.263194 0.37199 0.411637 0.292534 0.586693C0.213078 0.761749 0.185765 0.955998 0.213867 1.14618C0.241969 1.33636 0.324294 1.51441 0.450983 1.659Z" stroke="#979797"/>
</svg>
