<svg aria-hidden="true" style="position: absolute; width: 0; height: 0; overflow: hidden;" version="1.1" xmlns="http://www.w3.org/2000/svg" xmlns:xlink="http://www.w3.org/1999/xlink">
<defs>
<symbol id="icon-tiktok-fs" viewBox="0 0 32 32">
<path  d="M28 9.75c-1.658 0-3.247-0.658-4.419-1.831s-1.831-2.762-1.831-4.419c0-0.199-0.079-0.39-0.22-0.53s-0.331-0.22-0.53-0.22h-5c-0.199 0-0.39 0.079-0.53 0.22s-0.22 0.331-0.22 0.53v16c-0 0.492-0.133 0.975-0.383 1.399s-0.61 0.772-1.042 1.009c-0.431 0.237-0.918 0.354-1.41 0.339s-0.971-0.162-1.387-0.426c-0.416-0.264-0.753-0.634-0.977-1.072s-0.326-0.929-0.296-1.42c0.030-0.491 0.192-0.965 0.468-1.373s0.657-0.733 1.102-0.944c0.127-0.061 0.235-0.157 0.31-0.276s0.115-0.258 0.115-0.399v-5.2c-0-0.111-0.025-0.22-0.071-0.32s-0.115-0.189-0.199-0.26c-0.084-0.071-0.183-0.123-0.29-0.153s-0.218-0.035-0.327-0.017c-1.731 0.311-3.338 1.11-4.631 2.302s-2.22 2.728-2.672 4.429-0.408 3.494 0.124 5.171c0.532 1.677 1.531 3.167 2.88 4.296s2.992 1.85 4.736 2.078c1.744 0.228 3.517-0.045 5.111-0.789s2.943-1.926 3.889-3.41c0.946-1.483 1.449-3.205 1.45-4.964v-4.887c1.906 1.078 4.060 1.642 6.25 1.638 0.199 0 0.39-0.079 0.53-0.22s0.22-0.331 0.22-0.53v-5c0-0.199-0.079-0.39-0.22-0.53s-0.331-0.22-0.53-0.22v0zM27.25 14.725c-2.096-0.133-4.111-0.857-5.813-2.088-0.111-0.080-0.242-0.129-0.379-0.14s-0.274 0.016-0.396 0.077c-0.123 0.065-0.226 0.162-0.299 0.281s-0.112 0.255-0.114 0.394v6.25c-0.002 1.435-0.402 2.842-1.156 4.063s-1.833 2.209-3.115 2.853c-1.283 0.644-2.719 0.92-4.149 0.796s-2.797-0.643-3.95-1.499c-1.152-0.856-2.045-2.015-2.577-3.347s-0.684-2.788-0.439-4.202c0.246-1.414 0.879-2.732 1.83-3.807s2.182-1.865 3.555-2.282v3.825c-0.628 0.392-1.143 0.941-1.493 1.593s-0.525 1.384-0.505 2.124 0.231 1.462 0.615 2.095c0.384 0.633 0.927 1.154 1.574 1.513s1.377 0.542 2.117 0.532c0.74-0.010 1.465-0.213 2.102-0.59s1.165-0.912 1.532-1.555 0.559-1.37 0.558-2.111v-15.25h3.538c0.174 1.788 0.964 3.459 2.233 4.729s2.942 2.059 4.729 2.233v3.513z"></path>
</symbol>
<symbol id="icon-instagram-fs" viewBox="0 0 32 32">
<path  d="M16 10.25c-1.137 0-2.249 0.337-3.194 0.969s-1.683 1.53-2.118 2.581c-0.435 1.051-0.549 2.207-0.327 3.322s0.769 2.14 1.574 2.944 1.829 1.352 2.944 1.574c1.115 0.222 2.272 0.108 3.322-0.327s1.949-1.172 2.581-2.118c0.632-0.946 0.969-2.057 0.969-3.194 0-1.525-0.606-2.988-1.684-4.066s-2.541-1.684-4.066-1.684v0zM16 20.25c-0.841 0-1.662-0.249-2.361-0.716s-1.244-1.131-1.565-1.907c-0.322-0.777-0.406-1.631-0.242-2.456s0.569-1.582 1.163-2.176 1.352-0.999 2.176-1.163c0.824-0.164 1.679-0.080 2.456 0.242s1.44 0.866 1.907 1.565c0.467 0.699 0.716 1.521 0.716 2.361-0.003 1.126-0.452 2.205-1.248 3.002s-1.875 1.245-3.002 1.248zM21.5 3.75h-11c-1.79 0-3.507 0.711-4.773 1.977s-1.977 2.983-1.977 4.773v11c0 1.79 0.711 3.507 1.977 4.773s2.983 1.977 4.773 1.977h11c1.79 0 3.507-0.711 4.773-1.977s1.977-2.983 1.977-4.773v-11c0-1.79-0.711-3.507-1.977-4.773s-2.983-1.977-4.773-1.977v0zM26.75 21.5c0 1.392-0.553 2.728-1.538 3.712s-2.32 1.538-3.712 1.538h-11c-1.392 0-2.728-0.553-3.712-1.538s-1.538-2.32-1.538-3.712v-11c0-1.392 0.553-2.728 1.538-3.712s2.32-1.538 3.712-1.538h11c1.392 0 2.728 0.553 3.712 1.538s1.538 2.32 1.538 3.712v11zM23.75 9.5c0 0.247-0.073 0.489-0.211 0.694s-0.333 0.366-0.561 0.46c-0.228 0.095-0.48 0.119-0.722 0.071s-0.465-0.167-0.64-0.342c-0.175-0.175-0.294-0.398-0.342-0.64s-0.023-0.494 0.071-0.722c0.095-0.228 0.255-0.424 0.46-0.561s0.447-0.211 0.695-0.211c0.332 0 0.649 0.132 0.884 0.366s0.366 0.552 0.366 0.884z"></path>
</symbol>
<symbol id="icon-facebook-fs" viewBox="0 0 32 32">
<path fill="none" stroke-linejoin="round" stroke-linecap="butt" stroke-miterlimit="4" stroke-width="1.7371" d="M24 8.4h-4.009c-0.724 0-1.311 0.587-1.311 1.311v4.6h5.32l-0.779 5.065h-4.54v9.291h-5.851v-9.291h-4.83v-5.065h4.767l0.063-4.807-0.009-0.873c-0.007-0.693 0.124-1.381 0.384-2.023s0.646-1.227 1.133-1.72c0.488-0.493 1.068-0.884 1.708-1.151s1.326-0.404 2.019-0.404h5.934v5.067z"></path>
</symbol>
<symbol id="icon-heart" viewBox="0 0 32 32">
<path  d="M23.351 0c-2.145 0.001-4.212 0.926-5.798 2.595-0.603 0.63-1.126 1.355-1.553 2.154-0.428-0.799-0.951-1.525-1.553-2.155-1.587-1.668-3.654-2.593-5.798-2.594-4.769 0-8.649 4.486-8.649 10 0 3.722 1.002 6.66 3.348 9.825 3.409 4.6 12.038 11.62 12.404 11.917 0.073 0.060 0.159 0.091 0.248 0.091s0.176-0.032 0.248-0.091c0.366-0.297 8.995-7.317 12.405-11.917 2.346-3.165 3.347-6.103 3.347-9.825 0-5.514-3.88-10-8.649-10zM27.997 19.175c-3.023 4.076-10.534 10.341-11.997 11.545-1.463-1.204-8.974-7.469-11.996-11.545-2.201-2.969-3.139-5.713-3.139-9.175 0-4.963 3.492-9 7.784-9 1.926 0 3.779 0.829 5.217 2.335 0.721 0.754 1.314 1.658 1.747 2.664 0.147 0.34 0.628 0.34 0.775 0 0.433-1.006 1.026-1.909 1.747-2.663 1.427-1.502 3.287-2.335 5.217-2.336 4.291 0 7.784 4.037 7.784 9 0 3.462-0.938 6.206-3.139 9.175z"></path>
</symbol>
<symbol id="icon-Vector-4" viewBox="0 0 102 32">
<path fill="none" stroke="#fff" style="stroke: var(--color1, #fff)" opacity="0.9" d="M101.245 1.087c-0.015-0.276-0.252-0.487-0.527-0.471l-4.493 0.253c-0.276 0.016-0.487 0.252-0.471 0.527s0.252 0.487 0.527 0.471l3.994-0.225 0.225 3.994c0.015 0.276 0.251 0.487 0.527 0.471s0.487-0.252 0.471-0.527l-0.253-4.493zM100.373 0.782c-16.646 18.633-29.049 26.919-38.775 29.318-9.669 2.385-16.777-1.029-22.93-6.093-3.087-2.54-5.917-5.482-8.71-8.317-2.783-2.823-5.533-5.544-8.426-7.583-2.899-2.044-5.975-3.428-9.414-3.543-3.443-0.116-7.182 1.042-11.403 3.956l0.568 0.823c4.095-2.826 7.626-3.887 10.802-3.78 3.179 0.107 6.068 1.385 8.872 3.361 2.81 1.981 5.501 4.638 8.29 7.468 2.778 2.819 5.65 5.806 8.787 8.387 6.294 5.179 13.72 8.78 23.805 6.292 10.028-2.474 22.599-10.949 39.281-29.623l-0.746-0.666z"></path>
</symbol>
<symbol id="icon-Vector-3" viewBox="0 0 245 32">
<path fill="none" stroke="#fff" style="stroke: var(--color1, #fff)" stroke-linejoin="miter" stroke-linecap="butt" stroke-miterlimit="4" stroke-width="3.5556" d="M2.457 24.091c170.634-56.8 220.024 19.803 238.665 1.596"></path>
</symbol>
<symbol id="icon-Vector-2" viewBox="0 0 107 32">
<path fill="none" stroke="#fff" style="stroke: var(--color1, #fff)" stroke-linejoin="miter" stroke-linecap="butt" stroke-miterlimit="4" stroke-width="1.8824" d="M106.708 27.724c-84.884 10.435-93.497-32.383-104.829-25.33"></path>
</symbol>
<symbol id="icon-Vector-1" viewBox="0 0 15 32">
<path fill="#fff" style="fill: var(--color1, #fff)" opacity="0.9" d="M14.329 31.601c0.072-0.014 0.119-0.083 0.105-0.154l-0.221-1.169c-0.014-0.072-0.083-0.119-0.155-0.105s-0.119 0.083-0.105 0.154l0.197 1.040-1.039 0.197c-0.072 0.014-0.119 0.083-0.105 0.154s0.083 0.119 0.155 0.106l1.169-0.221zM10.505 0.174c-5.99 6.453-8.949 11.522-9.959 15.533-1.012 4.020-0.065 6.972 1.739 9.17 1.797 2.191 4.437 3.622 6.796 4.629 1.18 0.504 2.295 0.903 3.202 1.237 0.454 0.167 0.855 0.317 1.187 0.456 0.334 0.14 0.59 0.265 0.761 0.381l0.149-0.218c-0.193-0.132-0.471-0.266-0.807-0.407-0.338-0.142-0.744-0.294-1.197-0.461-0.909-0.335-2.016-0.731-3.189-1.232-2.348-1.002-4.939-2.413-6.696-4.553-1.75-2.133-2.679-4.998-1.687-8.938 0.994-3.948 3.919-8.978 9.896-15.418l-0.194-0.18z"></path>
</symbol>
<symbol id="icon-workinghours" viewBox="0 0 32 32">
<path  d="M29.532 12.875h-8c-0.137 0-0.25 0.113-0.25 0.25v1.5c0 0.137 0.113 0.25 0.25 0.25h8c0.137 0 0.25-0.112 0.25-0.25v-1.5c0-0.137-0.113-0.25-0.25-0.25zM25.345 17.125h-3.813c-0.137 0-0.25 0.112-0.25 0.25v1.5c0 0.138 0.113 0.25 0.25 0.25h3.813c0.137 0 0.25-0.113 0.25-0.25v-1.5c0-0.137-0.113-0.25-0.25-0.25zM14.917 10.078h-1.353c-0.194 0-0.35 0.156-0.35 0.35v7.75c0 0.113 0.053 0.216 0.144 0.281l4.653 3.394c0.156 0.113 0.375 0.081 0.487-0.075l0.803-1.097v-0.003c0.113-0.156 0.078-0.375-0.078-0.487l-3.959-2.863v-6.9c0.003-0.194-0.156-0.35-0.347-0.35v0z"></path>
<path  d="M25.15 21.060h-1.806c-0.175 0-0.341 0.091-0.434 0.241-0.397 0.628-0.859 1.209-1.391 1.741-0.916 0.916-1.981 1.634-3.166 2.134-1.228 0.519-2.531 0.781-3.875 0.781-1.347 0-2.65-0.263-3.875-0.781-1.184-0.5-2.25-1.219-3.166-2.134s-1.634-1.981-2.134-3.166c-0.519-1.225-0.781-2.528-0.781-3.875s0.263-2.647 0.781-3.875c0.5-1.184 1.219-2.25 2.134-3.166s1.981-1.634 3.166-2.134c1.225-0.519 2.531-0.781 3.875-0.781 1.347 0 2.65 0.263 3.875 0.781 1.184 0.5 2.25 1.219 3.166 2.134 0.531 0.531 0.994 1.113 1.391 1.741 0.094 0.15 0.259 0.241 0.434 0.241h1.806c0.216 0 0.353-0.225 0.256-0.416-2.037-4.053-6.169-6.688-10.781-6.741-6.753-0.084-12.363 5.444-12.375 12.191-0.013 6.759 5.466 12.244 12.225 12.244 4.672 0 8.872-2.644 10.931-6.744 0.097-0.191-0.044-0.416-0.256-0.416v0z"></path>
</symbol>
<symbol id="icon-tiktok" viewBox="0 0 32 32">
<path  d="M28 9.5c-1.591 0-3.117-0.632-4.243-1.757s-1.757-2.651-1.757-4.243c0-0.265-0.105-0.52-0.293-0.707s-0.442-0.293-0.707-0.293h-5c-0.265 0-0.52 0.105-0.707 0.293s-0.293 0.442-0.293 0.707v16c-0.001 0.447-0.122 0.886-0.35 1.27s-0.555 0.701-0.947 0.916c-0.392 0.215-0.834 0.321-1.281 0.307s-0.882-0.147-1.259-0.386c-0.378-0.239-0.684-0.575-0.888-0.973s-0.297-0.843-0.27-1.289c0.027-0.446 0.173-0.877 0.422-1.248s0.594-0.667 0.998-0.86c0.172-0.079 0.318-0.206 0.42-0.365s0.156-0.345 0.155-0.535v-5.2c0.002-0.148-0.029-0.295-0.092-0.429s-0.155-0.252-0.271-0.346c-0.112-0.092-0.243-0.159-0.383-0.196s-0.287-0.042-0.43-0.017c-1.779 0.319-3.43 1.138-4.76 2.362s-2.282 2.802-2.747 4.549c-0.464 1.747-0.42 3.59 0.126 5.312s1.573 3.254 2.959 4.414 3.074 1.9 4.866 2.134c1.792 0.234 3.614-0.048 5.251-0.813s3.023-1.981 3.993-3.506c0.97-1.525 1.486-3.295 1.485-5.102v-4.463c1.852 0.966 3.911 1.468 6 1.463 0.265 0 0.52-0.105 0.707-0.293s0.293-0.442 0.293-0.707v-5c0-0.265-0.105-0.52-0.293-0.707s-0.442-0.293-0.707-0.293zM27 14.45c-1.952-0.173-3.821-0.868-5.413-2.012-0.151-0.104-0.326-0.165-0.509-0.177s-0.365 0.026-0.528 0.109c-0.163 0.083-0.3 0.209-0.397 0.364s-0.15 0.333-0.154 0.516v6.25c-0.001 1.375-0.379 2.723-1.094 3.897s-1.739 2.129-2.96 2.761c-1.221 0.631-2.593 0.915-3.964 0.82s-2.691-0.565-3.813-1.359-2.005-1.881-2.551-3.143c-0.546-1.262-0.735-2.649-0.546-4.011s0.749-2.645 1.618-3.711c0.869-1.065 2.015-1.871 3.311-2.329v3.338c-0.647 0.432-1.17 1.024-1.52 1.719s-0.513 1.468-0.475 2.245 0.277 1.53 0.694 2.187c0.416 0.657 0.996 1.195 1.682 1.561s1.455 0.549 2.232 0.529c0.777-0.020 1.536-0.24 2.203-0.64s1.218-0.966 1.601-1.643c0.383-0.677 0.583-1.441 0.583-2.219v-15h3.063c0.224 1.762 1.027 3.399 2.283 4.655s2.893 2.059 4.655 2.283v3.012z"></path>
</symbol>
<symbol id="icon-previous" viewBox="0 0 32 32">
<path  d="M18.853 10.234l-7.688 5.562c-0.032 0.023-0.058 0.053-0.076 0.088s-0.027 0.074-0.027 0.113c0 0.039 0.009 0.078 0.027 0.113s0.044 0.065 0.076 0.088l7.688 5.562c0.166 0.119 0.397 0 0.397-0.203v-1.466c0-0.319-0.153-0.622-0.412-0.809l-4.544-3.284 4.544-3.288c0.259-0.187 0.412-0.487 0.412-0.809v-1.466c0-0.203-0.231-0.322-0.397-0.203z"></path>
<path  d="M16 2c-7.731 0-14 6.269-14 14s6.269 14 14 14c7.731 0 14-6.269 14-14s-6.269-14-14-14zM16 27.625c-6.419 0-11.625-5.206-11.625-11.625s5.206-11.625 11.625-11.625c6.419 0 11.625 5.206 11.625 11.625s-5.206 11.625-11.625 11.625z"></path>
</symbol>
<symbol id="icon-phone" viewBox="0 0 32 32">
<path  d="M25.999 29h-0.17c-19.65-1.13-22.44-17.71-22.83-22.77-0.031-0.393 0.015-0.789 0.137-1.165s0.316-0.723 0.573-1.023c0.256-0.3 0.569-0.547 0.921-0.725s0.735-0.287 1.129-0.317h5.51c0.401-0 0.792 0.119 1.124 0.344s0.588 0.544 0.736 0.916l1.52 3.74c0.146 0.364 0.183 0.762 0.105 1.146s-0.268 0.737-0.545 1.014l-2.13 2.15c0.333 1.891 1.238 3.634 2.594 4.993s3.096 2.269 4.986 2.607l2.17-2.15c0.282-0.274 0.637-0.459 1.023-0.532s0.785-0.031 1.147 0.122l3.77 1.51c0.367 0.153 0.679 0.411 0.898 0.743s0.335 0.72 0.332 1.117v5.28c0 0.796-0.316 1.559-0.879 2.121s-1.326 0.879-2.121 0.879zM5.999 5c-0.265 0-0.52 0.105-0.707 0.293s-0.293 0.442-0.293 0.707v0.080c0.46 5.92 3.41 19.92 20.94 20.92 0.131 0.008 0.263-0.010 0.388-0.053s0.239-0.11 0.338-0.197c0.099-0.087 0.179-0.193 0.236-0.312s0.091-0.247 0.099-0.378v-5.34l-3.77-1.51-2.87 2.85-0.48-0.060c-8.7-1.090-9.88-9.79-9.88-9.88l-0.060-0.48 2.84-2.87-1.5-3.77h-5.28z"></path>
</symbol>
<symbol id="icon-person" viewBox="0 0 32 32">
<path  d="M16 16c2.122 0 4.157-0.843 5.657-2.343s2.343-3.535 2.343-5.657-0.843-4.157-2.343-5.657c-1.5-1.5-3.535-2.343-5.657-2.343s-4.157 0.843-5.657 2.343c-1.5 1.5-2.343 3.535-2.343 5.657s0.843 4.157 2.343 5.657c1.5 1.5 3.535 2.343 5.657 2.343zM6.286 18.286c-1.061 0-2.078 0.421-2.828 1.172s-1.172 1.768-1.172 2.828v0.571c0 2.735 1.741 5.048 4.211 6.621 2.485 1.582 5.848 2.522 9.503 2.522s7.017-0.941 9.503-2.522c2.471-1.573 4.211-3.886 4.211-6.621v-0.571c0-1.061-0.421-2.078-1.172-2.828s-1.768-1.172-2.828-1.172h-19.429z"></path>
</symbol>
<symbol id="icon-people" viewBox="0 0 32 32">
<path  d="M23 9c0 1.857-0.738 3.637-2.050 4.95s-3.093 2.050-4.95 2.050-3.637-0.738-4.95-2.050c-1.313-1.313-2.050-3.093-2.050-4.95s0.738-3.637 2.050-4.95c1.313-1.313 3.093-2.050 4.95-2.050s3.637 0.737 4.95 2.050c1.313 1.313 2.050 3.093 2.050 4.95zM21 9c0-1.326-0.527-2.598-1.465-3.536s-2.209-1.464-3.535-1.464-2.598 0.527-3.535 1.464c-0.938 0.938-1.464 2.209-1.464 3.536s0.527 2.598 1.464 3.535c0.938 0.938 2.209 1.464 3.535 1.464s2.598-0.527 3.535-1.464c0.938-0.938 1.465-2.209 1.465-3.535zM7.5 18c-0.928 0-1.819 0.369-2.475 1.025s-1.025 1.547-1.025 2.475v0.5c0 2.393 1.523 4.417 3.685 5.793 2.174 1.384 5.117 2.207 8.315 2.207s6.14-0.823 8.315-2.207c2.162-1.376 3.685-3.4 3.685-5.793v-0.5c0-0.928-0.369-1.819-1.025-2.475s-1.547-1.025-2.475-1.025h-17zM6 21.5c0-0.398 0.158-0.779 0.439-1.061s0.663-0.439 1.061-0.439h17c0.398 0 0.779 0.158 1.061 0.439s0.439 0.663 0.439 1.061v0.5c0 1.473-0.94 2.949-2.759 4.106-1.807 1.15-4.364 1.894-7.241 1.894s-5.434-0.744-7.241-1.894c-1.82-1.156-2.759-2.634-2.759-4.106v-0.5z"></path>
</symbol>
<symbol id="icon-next" viewBox="0 0 32 32">
<path  d="M13.147 21.766l7.688-5.562c0.032-0.023 0.058-0.053 0.076-0.088s0.027-0.074 0.027-0.113c0-0.039-0.009-0.078-0.027-0.113s-0.044-0.065-0.076-0.088l-7.688-5.562c-0.166-0.119-0.397 0-0.397 0.203v1.466c0 0.319 0.153 0.622 0.412 0.809l4.544 3.284-4.544 3.288c-0.259 0.187-0.412 0.487-0.412 0.809v1.466c0 0.203 0.231 0.322 0.397 0.203z"></path>
<path  d="M16 30c7.731 0 14-6.269 14-14s-6.269-14-14-14c-7.731 0-14 6.269-14 14s6.269 14 14 14zM16 4.375c6.419 0 11.625 5.206 11.625 11.625s-5.206 11.625-11.625 11.625c-6.419 0-11.625-5.206-11.625-11.625s5.206-11.625 11.625-11.625z"></path>
</symbol>
<symbol id="icon-mail" viewBox="0 0 32 32">
<path  d="M26.667 26.667h-21.333c-0.707 0-1.386-0.281-1.886-0.781s-0.781-1.178-0.781-1.886v-16.116c0.030-0.687 0.324-1.336 0.821-1.811s1.158-0.74 1.846-0.74h21.333c0.707 0 1.385 0.281 1.886 0.781s0.781 1.178 0.781 1.886v16c0 0.707-0.281 1.385-0.781 1.886s-1.178 0.781-1.886 0.781zM5.333 10.491v13.509h21.333v-13.509l-10.667 7.109-10.667-7.109zM6.4 8l9.6 6.4 9.6-6.4h-19.2z"></path>
</symbol>
<symbol id="icon-location" viewBox="0 0 32 32">
<path  d="M25 13c0-2.387-0.948-4.676-2.636-6.364s-3.977-2.636-6.364-2.636-4.676 0.948-6.364 2.636c-1.688 1.688-2.636 3.977-2.636 6.364 0 3.692 2.954 8.504 9 14.268 6.046-5.764 9-10.576 9-14.268zM16 30c-7.334-6.666-11-12.334-11-17 0-2.917 1.159-5.715 3.222-7.778s4.861-3.222 7.778-3.222c2.917 0 5.715 1.159 7.778 3.222s3.222 4.861 3.222 7.778c0 4.666-3.666 10.334-11 17z"></path>
<path  d="M16 14c0.53 0 1.039-0.211 1.414-0.586s0.586-0.884 0.586-1.414-0.211-1.039-0.586-1.414c-0.375-0.375-0.884-0.586-1.414-0.586s-1.039 0.211-1.414 0.586c-0.375 0.375-0.586 0.884-0.586 1.414s0.211 1.039 0.586 1.414c0.375 0.375 0.884 0.586 1.414 0.586zM16 16c-1.061 0-2.078-0.421-2.828-1.172s-1.172-1.768-1.172-2.828c0-1.061 0.421-2.078 1.172-2.828s1.768-1.172 2.828-1.172c1.061 0 2.078 0.421 2.828 1.172s1.172 1.768 1.172 2.828c0 1.061-0.421 2.078-1.172 2.828s-1.768 1.172-2.828 1.172zM26.8 22l3.2 8h-9v-2h-10v2h-9l3.2-8h21.6zM24.646 22h-17.292l-2.4 6h22.092l-2.4-6z"></path>
</symbol>
<symbol id="icon-instagram" viewBox="0 0 32 32">
<path  d="M9.953 1.421c1.564-0.072 2.063-0.088 6.047-0.088s4.483 0.017 6.045 0.088c1.563 0.071 2.629 0.32 3.563 0.681 0.977 0.369 1.864 0.947 2.597 1.693 0.747 0.732 1.323 1.617 1.691 2.596 0.363 0.933 0.611 2 0.683 3.56 0.072 1.567 0.088 2.065 0.088 6.048 0 3.984-0.017 4.483-0.088 6.047-0.071 1.56-0.32 2.627-0.683 3.56-0.368 0.979-0.945 1.866-1.691 2.599-0.733 0.747-1.62 1.323-2.597 1.691-0.933 0.363-2 0.611-3.56 0.683-1.565 0.072-2.064 0.088-6.048 0.088s-4.483-0.017-6.047-0.088c-1.56-0.071-2.627-0.32-3.56-0.683-0.979-0.368-1.866-0.945-2.599-1.691-0.746-0.732-1.324-1.619-1.692-2.597-0.361-0.933-0.609-2-0.681-3.56-0.072-1.567-0.088-2.065-0.088-6.048 0-3.984 0.017-4.483 0.088-6.045s0.32-2.629 0.681-3.563c0.369-0.979 0.947-1.865 1.693-2.597 0.732-0.746 1.618-1.323 2.596-1.692 0.933-0.361 2-0.609 3.56-0.681h0.001zM21.927 4.061c-1.547-0.071-2.011-0.085-5.927-0.085s-4.38 0.015-5.927 0.085c-1.431 0.065-2.207 0.304-2.724 0.505-0.684 0.267-1.173 0.583-1.687 1.096-0.487 0.473-0.861 1.050-1.096 1.687-0.201 0.517-0.44 1.293-0.505 2.724-0.071 1.547-0.085 2.011-0.085 5.927s0.015 4.38 0.085 5.927c0.065 1.431 0.304 2.207 0.505 2.724 0.235 0.636 0.609 1.213 1.096 1.687 0.473 0.487 1.051 0.861 1.687 1.096 0.517 0.201 1.293 0.44 2.724 0.505 1.547 0.071 2.009 0.085 5.927 0.085s4.38-0.015 5.927-0.085c1.431-0.065 2.207-0.304 2.724-0.505 0.684-0.267 1.173-0.583 1.687-1.096 0.487-0.473 0.861-1.051 1.096-1.687 0.201-0.517 0.44-1.293 0.505-2.724 0.071-1.547 0.085-2.011 0.085-5.927s-0.015-4.38-0.085-5.927c-0.065-1.431-0.304-2.207-0.505-2.724-0.267-0.684-0.583-1.173-1.096-1.687-0.473-0.487-1.050-0.861-1.687-1.096-0.517-0.201-1.293-0.44-2.724-0.505zM14.127 20.521c1.046 0.435 2.211 0.494 3.296 0.166s2.022-1.022 2.652-1.965c0.63-0.942 0.913-2.074 0.801-3.201s-0.612-2.181-1.415-2.981c-0.512-0.511-1.13-0.903-1.812-1.146s-1.408-0.333-2.128-0.262-1.415 0.301-2.036 0.673c-0.62 0.372-1.151 0.877-1.553 1.478s-0.665 1.285-0.772 2c-0.106 0.715-0.053 1.446 0.157 2.138s0.571 1.329 1.056 1.866c0.486 0.536 1.084 0.958 1.752 1.235zM10.669 10.669c0.7-0.7 1.531-1.255 2.446-1.634s1.895-0.574 2.885-0.574c0.99 0 1.97 0.195 2.885 0.574s1.746 0.934 2.446 1.634c0.7 0.7 1.255 1.531 1.634 2.446s0.574 1.895 0.574 2.885-0.195 1.97-0.574 2.885c-0.379 0.915-0.934 1.746-1.634 2.446-1.414 1.414-3.331 2.208-5.331 2.208s-3.917-0.794-5.331-2.208c-1.414-1.414-2.208-3.331-2.208-5.331s0.794-3.917 2.208-5.331zM25.211 9.584c0.173-0.164 0.312-0.36 0.408-0.579s0.147-0.454 0.151-0.692c0.003-0.238-0.041-0.475-0.131-0.696s-0.223-0.422-0.391-0.59c-0.169-0.169-0.369-0.302-0.59-0.391s-0.458-0.134-0.696-0.131c-0.239 0.003-0.474 0.055-0.692 0.151s-0.415 0.235-0.579 0.408c-0.318 0.337-0.493 0.785-0.486 1.249s0.194 0.907 0.522 1.235c0.328 0.328 0.771 0.515 1.235 0.522s0.912-0.167 1.249-0.486z"></path>
</symbol>
<symbol id="icon-image" viewBox="0 0 32 32">
<path  d="M32 22.4v-19.2c0-1.76-1.44-3.2-3.2-3.2h-19.2c-1.76 0-3.2 1.44-3.2 3.2v19.2c0 1.76 1.44 3.2 3.2 3.2h19.2c1.76 0 3.2-1.44 3.2-3.2zM14.4 16l3.248 4.336 4.752-5.936 6.4 8h-19.2l4.8-6.4zM0 6.4v22.4c0 1.76 1.44 3.2 3.2 3.2h22.4v-3.2h-22.4v-22.4h-3.2z"></path>
</symbol>
<symbol id="icon-facebook" viewBox="0 0 32 32">
<path  d="M17.333 29.333h-5.333c-0.354 0-0.693-0.141-0.943-0.391s-0.391-0.589-0.391-0.943v-8.267h-2.667c-0.354 0-0.693-0.141-0.943-0.391s-0.391-0.589-0.391-0.943v-4.8c0-0.354 0.14-0.693 0.391-0.943s0.589-0.391 0.943-0.391h2.667v-2.267c0.093-2.032 0.988-3.943 2.487-5.318s3.481-2.099 5.513-2.016h4c0.354 0 0.693 0.14 0.943 0.391s0.391 0.589 0.391 0.943v4.8c0 0.354-0.141 0.693-0.391 0.943s-0.589 0.391-0.943 0.391h-4v2.133h4c0.206-0.002 0.409 0.045 0.594 0.135s0.347 0.222 0.472 0.385c0.124 0.166 0.208 0.358 0.245 0.562s0.026 0.413-0.032 0.612l-1.333 4.8c-0.081 0.288-0.256 0.541-0.498 0.718s-0.536 0.267-0.835 0.256h-2.613v8.267c0 0.354-0.141 0.693-0.391 0.943s-0.589 0.391-0.943 0.391zM13.333 26.667h2.667v-8.267c0-0.354 0.141-0.693 0.391-0.943s0.589-0.39 0.943-0.39h2.987l0.587-2.133h-3.573c-0.354 0-0.693-0.141-0.943-0.391s-0.391-0.589-0.391-0.943v-3.6c0.034-0.684 0.33-1.328 0.827-1.8s1.155-0.734 1.84-0.733h2.667v-2.133h-2.667c-1.324-0.081-2.627 0.364-3.625 1.238s-1.612 2.106-1.708 3.429v3.6c0 0.354-0.14 0.693-0.391 0.943s-0.589 0.391-0.943 0.391h-2.667v2.133h2.667c0.354 0 0.693 0.14 0.943 0.39s0.391 0.589 0.391 0.943v8.267z"></path>
</symbol>
<symbol id="icon-close" viewBox="0 0 32 32">
<path  d="M21.418 11.087c0-0.137-0.112-0.25-0.25-0.25l-2.062 0.009-3.106 3.703-3.103-3.7-2.066-0.009c-0.138 0-0.25 0.109-0.25 0.25 0 0.059 0.022 0.116 0.059 0.163l4.066 4.844-4.066 4.841c-0.038 0.046-0.059 0.103-0.059 0.163 0 0.137 0.112 0.25 0.25 0.25l2.066-0.009 3.103-3.703 3.103 3.7 2.063 0.009c0.137 0 0.25-0.109 0.25-0.25 0-0.059-0.022-0.116-0.059-0.163l-4.059-4.841 4.066-4.844c0.037-0.044 0.056-0.103 0.056-0.163z"></path>
<path  d="M16 2.031c-7.731 0-14 6.269-14 14s6.269 14 14 14 14-6.269 14-14c0-7.731-6.269-14-14-14zM16 27.656c-6.419 0-11.625-5.206-11.625-11.625s5.206-11.625 11.625-11.625c6.419 0 11.625 5.206 11.625 11.625s-5.206 11.625-11.625 11.625z"></path>
</symbol>
</defs>
</svg>
