<svg width="24" height="24" viewBox="0 0 24 24" fill="none" xmlns="http://www.w3.org/2000/svg">
<path d="M12 22C10.6865 22.0017 9.38567 21.7438 8.17219 21.2412C6.95871 20.7385 5.85653 20.001 4.92899 19.071C3.99901 18.1435 3.26149 17.0413 2.75883 15.8278C2.25618 14.6143 1.99829 13.3135 1.99999 12C1.99832 10.6865 2.25622 9.3857 2.75887 8.17222C3.26153 6.95875 3.99903 5.85656 4.92899 4.92901C5.85653 3.99902 6.95871 3.26151 8.17219 2.75885C9.38567 2.25619 10.6865 1.99831 12 2.00001C13.3135 1.99833 14.6143 2.25623 15.8278 2.75889C17.0413 3.26154 18.1434 3.99904 19.071 4.92901C20.001 5.85656 20.7385 6.95875 21.2411 8.17222C21.7438 9.3857 22.0017 10.6865 22 12C22.0017 13.3135 21.7438 14.6143 21.2411 15.8278C20.7385 17.0413 20.001 18.1435 19.071 19.071C18.1434 20.001 17.0413 20.7385 15.8278 21.2411C14.6143 21.7438 13.3135 22.0017 12 22V22Z" stroke="#FC4F53" stroke-width="2" stroke-linejoin="round"/>
<path fill-rule="evenodd" clip-rule="evenodd" d="M12 18.5C11.6685 18.5 11.3505 18.3683 11.1161 18.1339C10.8817 17.8995 10.75 17.5815 10.75 17.25C10.75 16.9185 10.8817 16.6005 11.1161 16.3661C11.3505 16.1317 11.6685 16 12 16C12.3315 16 12.6495 16.1317 12.8839 16.3661C13.1183 16.6005 13.25 16.9185 13.25 17.25C13.25 17.5815 13.1183 17.8995 12.8839 18.1339C12.6495 18.3683 12.3315 18.5 12 18.5Z" fill="#FC4F53"/>
<path d="M12 6V14" stroke="#FC4F53" stroke-width="2" stroke-linecap="round" stroke-linejoin="round"/>
</svg>
